<svg width="142" height="43" viewBox="0 0 142 43" fill="none" xmlns="http://www.w3.org/2000/svg">
<g style="mix-blend-mode:luminosity" clip-path="url(#clip0_42_755)">
<path fill-rule="evenodd" clip-rule="evenodd" d="M87.8126 33.3189C79.5871 39.3746 67.6647 42.6056 57.3998 42.6056C43.0066 42.6056 30.0492 37.2884 20.2463 28.4448C19.4761 27.7494 20.1662 26.8016 21.0904 27.3432C31.6696 33.4912 44.7503 37.1899 58.2624 37.1899C67.3751 37.1899 77.3998 35.3067 86.6173 31.3988C88.0097 30.808 89.1742 32.3096 87.8126 33.3189" fill="#FF9900"/>
<path fill-rule="evenodd" clip-rule="evenodd" d="M91.2322 29.4109C90.1847 28.0693 84.2821 28.777 81.6327 29.0909C80.8256 29.1894 80.7023 28.4878 81.4294 27.9832C86.1305 24.6784 93.8446 25.6323 94.7442 26.74C95.6437 27.8539 94.51 35.5774 90.0923 39.2638C89.4146 39.83 88.7676 39.5284 89.0695 38.7776C90.0615 36.3036 92.2858 30.7587 91.2322 29.4109" fill="#FF9900"/>
<path fill-rule="evenodd" clip-rule="evenodd" d="M81.8175 4.65253V1.44004C81.8175 0.953857 82.1872 0.627686 82.6308 0.627686H97.0301C97.4922 0.627686 97.8619 0.960012 97.8619 1.44004V4.19096C97.8557 4.65253 97.4675 5.25564 96.7775 6.20954L89.316 16.8501C92.0886 16.7824 95.0153 17.1948 97.5292 18.6102C98.096 18.9303 98.25 19.398 98.2932 19.8595V23.2874C98.2932 23.7551 97.7756 24.3029 97.2334 24.0198C92.8033 21.6996 86.9192 21.4473 82.0208 24.0444C81.5218 24.3152 80.998 23.7736 80.998 23.3059V20.0503C80.998 19.5272 81.0042 18.6349 81.5279 17.841L90.1724 5.45873H82.6493C82.1872 5.45873 81.8175 5.13256 81.8175 4.65253" fill="black"/>
<path fill-rule="evenodd" clip-rule="evenodd" d="M29.2915 24.6967H24.9107C24.4917 24.6659 24.159 24.3521 24.1282 23.952V1.49541C24.1282 1.04615 24.504 0.689206 24.9723 0.689206H29.0573C29.4825 0.707656 29.8213 1.03384 29.8521 1.44002V4.37557H29.9322C30.9982 1.53848 33.0006 0.215332 35.6993 0.215332C38.4412 0.215332 40.1541 1.53848 41.3863 4.37557C42.4461 1.53848 44.8552 0.215332 47.4369 0.215332C49.273 0.215332 51.2816 0.972297 52.5077 2.67085C53.8941 4.56019 53.6106 7.30496 53.6106 9.71125L53.6045 23.8843C53.6045 24.3336 53.2286 24.6967 52.7604 24.6967H48.3857C47.9483 24.6659 47.5971 24.3151 47.5971 23.8843V11.9821C47.5971 11.0344 47.6833 8.67119 47.4738 7.77268C47.1473 6.2649 46.1676 5.84026 44.8984 5.84026C43.8386 5.84026 42.7295 6.54799 42.2798 7.68037C41.83 8.81274 41.8731 10.7082 41.8731 11.9821V23.8843C41.8731 24.3336 41.4973 24.6967 41.029 24.6967H36.6544C36.2107 24.6659 35.8657 24.3151 35.8657 23.8843L35.8595 11.9821C35.8595 9.47739 36.2724 5.79103 33.1608 5.79103C30.0123 5.79103 30.1356 9.38507 30.1356 11.9821V23.8843C30.1356 24.3336 29.7597 24.6967 29.2915 24.6967" fill="black"/>
<path fill-rule="evenodd" clip-rule="evenodd" d="M110.259 0.215332C116.759 0.215332 120.277 5.79103 120.277 12.8807C120.277 19.7303 116.389 25.1644 110.259 25.1644C103.875 25.1644 100.4 19.5887 100.4 12.6406C100.4 5.64948 103.919 0.215332 110.259 0.215332V0.215332ZM110.296 4.80021C107.067 4.80021 106.864 9.19429 106.864 11.9329C106.864 14.6777 106.821 20.5365 110.259 20.5365C113.654 20.5365 113.814 15.81 113.814 12.9299C113.814 11.0344 113.734 8.76966 113.161 6.97263C112.668 5.40947 111.688 4.80021 110.296 4.80021" fill="black"/>
<path fill-rule="evenodd" clip-rule="evenodd" d="M128.706 24.6967H124.344C123.906 24.6659 123.555 24.3151 123.555 23.8843L123.549 1.42155C123.586 1.00922 123.949 0.689206 124.393 0.689206H128.453C128.835 0.707656 129.15 0.966145 129.236 1.31693V4.75097H129.316C130.542 1.68003 132.261 0.215332 135.286 0.215332C137.252 0.215332 139.168 0.923065 140.4 2.86163C141.546 4.65866 141.546 7.68036 141.546 9.85279V23.989C141.497 24.3828 141.134 24.6967 140.702 24.6967H136.309C135.909 24.6659 135.576 24.3705 135.533 23.989V11.7914C135.533 9.33584 135.816 5.74179 132.791 5.74179C131.725 5.74179 130.745 6.45568 130.259 7.53882C129.642 8.9112 129.562 10.2774 129.562 11.7914V23.8843C129.556 24.3336 129.174 24.6967 128.706 24.6967" fill="black"/>
<path fill-rule="evenodd" clip-rule="evenodd" d="M70.3389 13.97C70.3389 15.6747 70.382 17.0963 69.5194 18.6103C68.8231 19.8411 67.7141 20.5981 66.488 20.5981C64.8059 20.5981 63.8201 19.318 63.8201 17.4287C63.8201 13.6992 67.1657 13.0223 70.3389 13.0223V13.97V13.97ZM74.7566 24.6352C74.467 24.8937 74.048 24.9122 73.7215 24.7399C72.2674 23.5336 72.0024 22.9736 71.2076 21.8228C68.8047 24.2721 67.0979 25.0045 63.9864 25.0045C60.2957 25.0045 57.4307 22.7336 57.4307 18.1856C57.4307 14.6347 59.353 12.2161 62.101 11.0345C64.4793 9.98825 67.8003 9.80363 70.3389 9.51438V8.9482C70.3389 7.90814 70.419 6.6773 69.8028 5.77879C69.2729 4.97259 68.2501 4.64026 67.3444 4.64026C65.6747 4.64026 64.1898 5.49569 63.8262 7.2681C63.7523 7.66197 63.4627 8.04969 63.0622 8.06815L58.817 7.61273C58.4596 7.53273 58.0591 7.24348 58.1639 6.69576C59.1374 1.55086 63.7954 0 67.9605 0C70.0924 0 72.8774 0.566187 74.5594 2.17858C76.6913 4.16639 76.488 6.81884 76.488 9.70516V16.524C76.488 18.5734 77.3382 19.4719 78.1392 20.5796C78.4165 20.9735 78.4781 21.4474 78.1207 21.7428C77.2273 22.4874 75.6377 23.8721 74.7627 24.6475L74.7566 24.6352" fill="black"/>
<path fill-rule="evenodd" clip-rule="evenodd" d="M12.9082 13.97C12.9082 15.6747 12.9513 17.0963 12.0887 18.6103C11.3925 19.8411 10.2896 20.5981 9.0573 20.5981C7.37523 20.5981 6.39556 19.318 6.39556 17.4287C6.39556 13.6992 9.74122 13.0223 12.9082 13.0223V13.97V13.97ZM17.3259 24.6352C17.0364 24.8937 16.6174 24.9122 16.2908 24.7399C14.8367 23.5336 14.5779 22.9736 13.777 21.8228C11.374 24.2721 9.67345 25.0045 6.55576 25.0045C2.87122 25.0045 0 22.7336 0 18.1856C0 14.6347 1.92853 12.2161 4.67036 11.0345C7.04867 9.98825 10.3697 9.80363 12.9082 9.51438V8.9482C12.9082 7.90814 12.9883 6.6773 12.3783 5.77879C11.8423 4.97259 10.8195 4.64026 9.9199 4.64026C8.25016 4.64026 6.75909 5.49569 6.39556 7.2681C6.32162 7.66197 6.03204 8.04969 5.63771 8.06815L1.38632 7.61273C1.02896 7.53273 0.634626 7.24348 0.733209 6.69576C1.71288 1.55086 6.36475 0 10.5299 0C12.6617 0 15.4467 0.566187 17.1288 2.17858C19.2606 4.16639 19.0573 6.81884 19.0573 9.70516V16.524C19.0573 18.5734 19.9076 19.4719 20.7086 20.5796C20.992 20.9735 21.0536 21.4474 20.6962 21.7428C19.8028 22.4874 18.2132 23.8721 17.3383 24.6475L17.3259 24.6352" fill="black"/>
</g>
<defs>
<clipPath id="clip0_42_755">
<rect width="141.547" height="42.6055" fill="white"/>
</clipPath>
</defs>
</svg>