<svg width="1440" height="644" viewBox="0 0 1440 644" fill="none" xmlns="http://www.w3.org/2000/svg">
<g clip-path="url(#clip0_418_265)">
<mask id="mask0_418_265" style="mask-type:luminance" maskUnits="userSpaceOnUse" x="0" y="0" width="1440" height="644">
<path d="M1440 0H0V644H1440V0Z" fill="white"/>
</mask>
<g mask="url(#mask0_418_265)">
<path d="M1440 0H0V644H1440V0Z" fill="#F7F3ED"/>
<path d="M84.2478 243.169C117.978 243.169 149.698 256.309 173.548 280.159C197.398 304.009 210.538 335.729 210.538 369.459C210.538 403.189 197.398 434.909 173.548 458.759C149.698 482.609 117.978 495.749 84.2478 495.749C50.5178 495.749 18.7978 482.609 -5.05218 458.759C-28.9022 434.909 -42.0422 403.189 -42.0422 369.459C-42.0422 335.729 -28.9022 304.009 -5.05218 280.159C18.7978 256.309 50.5178 243.169 84.2478 243.169ZM84.2478 240.969C13.2878 240.969 -44.2422 298.499 -44.2422 369.459C-44.2422 440.419 13.2878 497.949 84.2478 497.949C155.208 497.949 212.738 440.419 212.738 369.459C212.738 298.499 155.208 240.969 84.2478 240.969Z" fill="#F2EAE1"/>
<path d="M-31.0428 579.662C-46.9889 488.728 2.54948 366.68 93.5361 350.744C184.523 334.807 282.515 431.001 298.461 521.935C314.407 612.869 253.583 699.511 162.582 715.462C71.5955 731.399 -15.0967 670.611 -31.0575 579.662H-31.0428Z" fill="#F2EAE1"/>
<path d="M264.321 426.51C262.192 426.434 260.558 424.645 260.634 422.513C260.71 420.381 262.496 418.725 264.625 418.82C266.753 418.897 268.387 420.686 268.311 422.818C268.235 424.892 266.525 426.51 264.473 426.51C264.473 426.51 264.378 426.51 264.321 426.51ZM278.079 422.418C277.832 420.305 279.333 418.383 281.443 418.135C283.552 417.888 285.471 419.392 285.718 421.504C285.965 423.617 284.464 425.539 282.355 425.787C282.203 425.806 282.032 425.825 281.899 425.825C279.979 425.825 278.326 424.397 278.079 422.437V422.418ZM246.401 424.359C244.329 423.941 242.98 421.904 243.398 419.829C243.816 417.755 245.85 416.403 247.921 416.822C249.992 417.241 251.342 419.277 250.924 421.352C250.544 423.179 248.947 424.435 247.161 424.435C246.914 424.435 246.648 424.416 246.401 424.359ZM295.277 419.563C294.688 417.526 295.866 415.375 297.899 414.804C299.933 414.214 302.08 415.394 302.669 417.431C303.258 419.468 302.08 421.618 300.047 422.189C299.686 422.285 299.325 422.342 298.982 422.342C297.31 422.342 295.771 421.238 295.296 419.563H295.277ZM229.051 419.334C227.056 418.573 226.067 416.365 226.828 414.367C227.588 412.368 229.792 411.378 231.787 412.14C233.764 412.901 234.771 415.109 234.011 417.107C233.422 418.649 231.977 419.582 230.419 419.582C229.963 419.582 229.507 419.506 229.051 419.334ZM311.791 413.948C310.878 412.025 311.696 409.722 313.615 408.809C315.534 407.895 317.834 408.713 318.727 410.636C319.639 412.558 318.822 414.861 316.902 415.756C316.37 416.003 315.8 416.137 315.249 416.137C313.805 416.137 312.437 415.318 311.772 413.948H311.791ZM212.746 411.569C210.903 410.503 210.276 408.142 211.34 406.315C212.404 404.469 214.761 403.841 216.585 404.907C218.428 405.973 219.055 408.333 217.991 410.16C217.269 411.397 215.996 412.082 214.666 412.082C214.019 412.082 213.354 411.911 212.746 411.569ZM327.183 405.744C325.967 403.993 326.404 401.595 328.152 400.396C329.901 399.177 332.295 399.634 333.492 401.366C334.708 403.117 334.271 405.516 332.523 406.715C331.858 407.172 331.098 407.4 330.338 407.4C329.121 407.4 327.924 406.829 327.164 405.744H327.183ZM197.886 401.29C196.252 399.939 196.005 397.521 197.335 395.884C198.684 394.228 201.097 394 202.751 395.332C204.404 396.684 204.632 399.101 203.302 400.738C202.542 401.671 201.439 402.147 200.318 402.147C199.463 402.147 198.608 401.861 197.886 401.271V401.29ZM341.055 395.18C339.592 393.638 339.63 391.202 341.169 389.736C342.709 388.271 345.122 388.309 346.604 389.851C348.068 391.392 348.03 393.81 346.49 395.294C345.749 396.018 344.78 396.36 343.83 396.36C342.823 396.36 341.816 395.961 341.055 395.18ZM184.869 388.785C183.462 387.205 183.615 384.769 185.192 383.36C186.769 381.952 189.201 382.085 190.627 383.684C192.033 385.263 191.881 387.7 190.304 389.108C189.581 389.755 188.669 390.079 187.757 390.079C186.693 390.079 185.648 389.641 184.888 388.785H184.869ZM353.084 382.523C351.393 381.247 351.051 378.83 352.324 377.136C353.597 375.442 356.011 375.099 357.702 376.375C359.393 377.65 359.735 380.067 358.462 381.761C357.702 382.77 356.562 383.303 355.384 383.303C354.586 383.303 353.768 383.056 353.065 382.523H353.084ZM174.018 374.357C172.878 372.568 173.41 370.189 175.196 369.047C176.982 367.904 179.358 368.437 180.498 370.227C181.638 372.016 181.106 374.395 179.32 375.537C178.674 375.937 177.971 376.127 177.267 376.127C175.994 376.127 174.759 375.499 174.018 374.338V374.357ZM362.947 368.114C361.066 367.124 360.344 364.802 361.332 362.918C362.32 361.033 364.638 360.31 366.52 361.3C368.401 362.289 369.123 364.612 368.135 366.496C367.451 367.809 366.121 368.552 364.733 368.552C364.125 368.552 363.517 368.418 362.947 368.114ZM165.619 358.368C164.782 356.408 165.695 354.143 167.652 353.324C169.609 352.487 171.871 353.401 172.688 355.361C173.524 357.322 172.612 359.587 170.654 360.405C170.16 360.614 169.647 360.71 169.153 360.71C167.652 360.71 166.246 359.834 165.619 358.368ZM370.377 352.297C368.363 351.611 367.28 349.441 367.945 347.424C368.61 345.406 370.795 344.321 372.81 344.987C374.824 345.654 375.907 347.843 375.242 349.86C374.71 351.478 373.209 352.487 371.593 352.487C371.194 352.487 370.776 352.43 370.377 352.297ZM159.918 341.219C159.405 339.163 160.678 337.069 162.73 336.555C164.782 336.042 166.873 337.317 167.386 339.372C167.899 341.428 166.626 343.522 164.573 344.036C164.269 344.112 163.965 344.15 163.661 344.15C161.932 344.15 160.355 342.97 159.937 341.219H159.918ZM375.166 335.489C373.076 335.147 371.65 333.167 371.992 331.074C372.335 328.98 374.311 327.552 376.401 327.895C378.492 328.238 379.917 330.217 379.575 332.311C379.271 334.195 377.636 335.547 375.793 335.547C375.584 335.547 375.375 335.547 375.166 335.489ZM157.029 323.384C156.858 321.271 158.435 319.406 160.545 319.234C162.654 319.063 164.516 320.643 164.687 322.756C164.858 324.869 163.281 326.734 161.172 326.905C161.058 326.905 160.963 326.905 160.849 326.905C158.872 326.905 157.181 325.382 157.029 323.365V323.384ZM373.323 314.286C373.323 312.154 375.033 310.441 377.161 310.441C379.29 310.441 381 312.173 381 314.286C381 316.417 379.271 318.13 377.161 318.13C375.033 318.13 373.323 316.398 373.323 314.286ZM160.545 309.451C158.435 309.28 156.858 307.433 157.01 305.302C157.181 303.189 159.024 301.609 161.153 301.761C163.262 301.933 164.839 303.779 164.687 305.892C164.535 307.909 162.844 309.451 160.868 309.451C160.773 309.451 160.659 309.451 160.564 309.451H160.545ZM371.992 297.498C371.65 295.404 373.076 293.424 375.166 293.082C377.256 292.739 379.233 294.167 379.575 296.279C379.917 298.373 378.492 300.353 376.401 300.695C376.192 300.733 375.983 300.752 375.793 300.752C373.95 300.752 372.316 299.401 372.011 297.517L371.992 297.498ZM162.692 292.111C160.621 291.597 159.367 289.522 159.88 287.448C160.393 285.373 162.464 284.117 164.535 284.631C166.607 285.145 167.861 287.219 167.348 289.294C166.911 291.045 165.352 292.225 163.623 292.225C163.319 292.225 163.015 292.187 162.711 292.111H162.692ZM367.983 281.147C367.318 279.13 368.401 276.96 370.415 276.275C372.43 275.608 374.596 276.693 375.28 278.711C375.945 280.729 374.862 282.918 372.848 283.584C372.449 283.717 372.03 283.774 371.631 283.774C370.016 283.774 368.515 282.746 367.983 281.147ZM167.614 275.342C165.657 274.504 164.744 272.239 165.581 270.298C166.417 268.337 168.678 267.424 170.616 268.261C172.574 269.099 173.486 271.364 172.65 273.305C172.023 274.771 170.597 275.647 169.115 275.647C168.621 275.647 168.108 275.551 167.614 275.342ZM361.408 265.654C360.42 263.769 361.142 261.447 363.023 260.457C364.904 259.468 367.223 260.191 368.211 262.075C369.199 263.96 368.477 266.282 366.596 267.272C366.025 267.576 365.417 267.709 364.809 267.709C363.422 267.709 362.092 266.967 361.408 265.654ZM175.177 259.601C173.391 258.459 172.84 256.08 173.98 254.29C175.12 252.501 177.495 251.968 179.282 253.091C181.087 254.233 181.619 256.612 180.479 258.402C179.757 259.563 178.503 260.191 177.229 260.191C176.526 260.191 175.823 260.001 175.177 259.601ZM352.419 251.435C351.146 249.741 351.488 247.324 353.179 246.049C354.871 244.773 357.284 245.116 358.557 246.81C359.83 248.504 359.488 250.921 357.797 252.197C357.113 252.711 356.296 252.977 355.498 252.977C354.339 252.977 353.179 252.444 352.419 251.435ZM185.154 245.268C183.557 243.86 183.424 241.423 184.831 239.825C186.237 238.226 188.669 238.092 190.247 239.501C191.843 240.909 191.995 243.346 190.589 244.945C189.829 245.801 188.764 246.239 187.719 246.239C186.807 246.239 185.914 245.915 185.173 245.268H185.154ZM341.283 238.835C339.744 237.369 339.706 234.914 341.169 233.391C342.633 231.868 345.065 231.811 346.604 233.277C348.144 234.742 348.182 237.198 346.718 238.721C345.958 239.501 344.951 239.901 343.944 239.901C342.994 239.901 342.025 239.539 341.283 238.835ZM197.297 232.706C195.948 231.069 196.195 228.633 197.829 227.281C199.463 225.93 201.896 226.177 203.245 227.814C204.594 229.47 204.347 231.887 202.713 233.239C201.991 233.829 201.135 234.114 200.28 234.114C199.178 234.114 198.057 233.638 197.297 232.706ZM328.266 228.157C326.518 226.938 326.081 224.54 327.297 222.808C328.513 221.057 330.908 220.619 332.637 221.837C334.385 223.056 334.822 225.454 333.606 227.186C332.865 228.271 331.668 228.842 330.433 228.842C329.673 228.842 328.912 228.613 328.247 228.157H328.266ZM211.264 222.256C210.2 220.41 210.827 218.069 212.651 217.003C214.495 215.937 216.832 216.565 217.896 218.392C218.96 220.239 218.333 222.58 216.49 223.646C215.882 224.007 215.217 224.16 214.571 224.16C213.24 224.16 211.948 223.474 211.245 222.237L211.264 222.256ZM313.729 219.706C311.81 218.792 310.992 216.489 311.905 214.566C312.817 212.644 315.116 211.825 317.035 212.739C318.955 213.653 319.772 215.956 318.841 217.878C318.176 219.268 316.807 220.067 315.363 220.067C314.812 220.067 314.242 219.953 313.71 219.686L313.729 219.706ZM226.733 214.186C225.972 212.206 226.98 209.979 228.956 209.218C230.932 208.456 233.156 209.465 233.916 211.445C234.676 213.424 233.669 215.651 231.692 216.413C231.236 216.584 230.78 216.66 230.324 216.66C228.766 216.66 227.322 215.708 226.733 214.186ZM298.013 213.729C295.98 213.139 294.802 211.007 295.391 208.951C295.98 206.915 298.108 205.735 300.161 206.325C302.194 206.915 303.372 209.066 302.783 211.102C302.289 212.777 300.75 213.881 299.097 213.881C298.735 213.881 298.374 213.824 298.032 213.729H298.013ZM243.303 208.723C242.885 206.648 244.215 204.612 246.306 204.174C248.377 203.755 250.41 205.087 250.848 207.181C251.266 209.275 249.935 211.293 247.845 211.73C247.579 211.787 247.332 211.806 247.066 211.806C245.28 211.806 243.683 210.55 243.303 208.723ZM281.557 210.36C279.447 210.112 277.946 208.19 278.193 206.077C278.44 203.964 280.359 202.461 282.469 202.708C284.578 202.956 286.079 204.878 285.813 206.991C285.585 208.951 283.913 210.379 281.994 210.379C281.842 210.379 281.69 210.379 281.538 210.36H281.557ZM260.539 206.001C260.444 203.869 262.097 202.08 264.226 202.004C264.226 202.004 264.302 202.004 264.359 202.004C264.359 202.004 264.435 202.004 264.473 202.004C266.601 201.909 268.387 203.565 268.463 205.697C268.558 207.828 266.905 209.618 264.777 209.694C264.777 209.694 264.701 209.694 264.682 209.694C264.682 209.694 264.606 209.694 264.568 209.694C264.568 209.694 264.454 209.694 264.397 209.694C262.344 209.694 260.653 208.076 260.558 206.001H260.539Z" fill="#F2EAE1"/>
<path d="M264.442 411.24C262.199 411.145 260.47 409.241 260.565 407.014C260.66 404.768 262.56 403.036 264.784 403.131C267.026 403.227 268.755 405.13 268.66 407.357C268.565 409.527 266.779 411.24 264.613 411.24C264.613 411.24 264.499 411.24 264.442 411.24ZM278.238 406.881C277.915 404.673 279.454 402.598 281.658 402.294C283.863 401.97 285.934 403.512 286.257 405.72C286.58 407.928 285.041 410.003 282.837 410.326C282.628 410.345 282.437 410.364 282.247 410.364C280.271 410.364 278.542 408.918 278.257 406.9L278.238 406.881ZM246.18 408.689C244.013 408.175 242.664 405.986 243.177 403.798C243.69 401.628 245.875 400.276 248.061 400.79C250.227 401.304 251.576 403.493 251.063 405.682C250.626 407.547 248.954 408.803 247.13 408.784C246.826 408.784 246.503 408.746 246.18 408.67V408.689ZM295.569 403.436C294.828 401.323 295.949 399.001 298.058 398.278C300.167 397.535 302.486 398.658 303.208 400.771C303.949 402.884 302.828 405.206 300.718 405.929C300.281 406.082 299.825 406.158 299.388 406.158C297.716 406.158 296.158 405.111 295.569 403.436ZM228.754 402.713C226.72 401.78 225.808 399.382 226.739 397.345C227.671 395.308 230.065 394.395 232.098 395.327C234.132 396.26 235.025 398.658 234.113 400.695C233.428 402.199 231.965 403.074 230.426 403.074C229.856 403.074 229.286 402.96 228.754 402.713ZM311.93 396.755C310.809 394.813 311.455 392.339 313.394 391.216C315.332 390.093 317.802 390.74 318.923 392.682C320.045 394.623 319.399 397.098 317.46 398.221C316.814 398.601 316.111 398.773 315.427 398.773C314.04 398.773 312.671 398.049 311.93 396.755ZM212.772 393.538C210.948 392.244 210.511 389.712 211.803 387.885C213.095 386.058 215.623 385.62 217.447 386.914C219.271 388.209 219.708 390.74 218.416 392.567C217.618 393.69 216.383 394.281 215.109 394.281C214.292 394.281 213.475 394.033 212.772 393.538ZM326.734 387.086C325.271 385.392 325.442 382.841 327.133 381.356C328.824 379.891 331.371 380.062 332.853 381.756C334.316 383.45 334.145 386.001 332.454 387.485C331.694 388.152 330.743 388.475 329.793 388.475C328.672 388.475 327.551 387.999 326.734 387.086ZM198.824 381.509C197.266 379.891 197.323 377.321 198.938 375.779C200.553 374.238 203.118 374.276 204.658 375.894C206.216 377.512 206.159 380.081 204.544 381.623C203.765 382.384 202.738 382.746 201.731 382.746C200.667 382.746 199.603 382.327 198.805 381.49L198.824 381.509ZM339.447 374.79C337.68 373.4 337.376 370.869 338.763 369.099C340.15 367.328 342.677 367.024 344.445 368.413C346.212 369.803 346.516 372.334 345.129 374.104C344.331 375.132 343.133 375.665 341.936 375.665C341.062 375.665 340.188 375.38 339.447 374.809V374.79ZM187.384 367.062C186.168 365.178 186.7 362.665 188.581 361.447C190.462 360.229 192.971 360.762 194.187 362.646C195.403 364.53 194.871 367.043 192.99 368.261C192.306 368.699 191.546 368.908 190.785 368.908C189.455 368.908 188.163 368.261 187.384 367.062ZM349.614 360.305C347.618 359.277 346.839 356.841 347.865 354.842C348.891 352.843 351.324 352.063 353.319 353.091C355.314 354.119 356.094 356.555 355.067 358.554C354.345 359.943 352.939 360.762 351.457 360.762C350.83 360.762 350.203 360.628 349.614 360.305ZM178.87 350.693C178.034 348.618 179.041 346.258 181.113 345.42C183.184 344.583 185.541 345.592 186.377 347.666C187.213 349.741 186.206 352.101 184.134 352.939C183.64 353.148 183.127 353.243 182.614 353.243C181.018 353.243 179.498 352.291 178.851 350.712L178.87 350.693ZM356.854 344.164C354.706 343.536 353.471 341.29 354.098 339.139C354.725 336.988 356.968 335.751 359.115 336.379C361.262 337.007 362.498 339.253 361.871 341.404C361.357 343.174 359.742 344.335 357.994 344.335C357.614 344.335 357.234 344.278 356.854 344.164ZM173.626 332.991C173.189 330.802 174.633 328.67 176.818 328.232C179.004 327.795 181.132 329.241 181.569 331.43C182.006 333.619 180.562 335.751 178.376 336.189C178.11 336.246 177.844 336.265 177.597 336.265C175.697 336.265 174.006 334.913 173.626 332.991ZM360.901 326.938C358.678 326.729 357.044 324.768 357.234 322.522C357.443 320.295 359.4 318.639 361.643 318.849C363.866 319.058 365.5 321.019 365.31 323.265C365.12 325.358 363.353 326.957 361.281 326.957C361.167 326.957 361.034 326.957 360.901 326.957V326.938ZM171.82 314.642C171.82 312.396 173.626 310.569 175.849 310.569C178.091 310.569 179.897 312.358 179.916 314.604C179.916 316.85 178.11 318.658 175.887 318.677C173.664 318.677 171.839 316.869 171.839 314.642H171.82ZM357.196 305.601C356.987 303.374 358.602 301.395 360.825 301.166C363.049 300.957 365.025 302.575 365.253 304.802C365.462 307.029 363.847 309.008 361.624 309.237C361.49 309.237 361.357 309.256 361.224 309.256C359.172 309.256 357.405 307.695 357.196 305.582V305.601ZM176.723 300.995C174.519 300.576 173.075 298.463 173.493 296.255C173.911 294.047 176.02 292.601 178.224 293.02C180.429 293.438 181.873 295.551 181.455 297.759C181.094 299.7 179.384 301.071 177.483 301.071C177.236 301.071 176.989 301.052 176.723 300.995ZM353.965 289.003C353.338 286.853 354.554 284.587 356.702 283.959C358.849 283.331 361.091 284.549 361.738 286.7C362.365 288.851 361.148 291.097 359.001 291.744C358.621 291.858 358.241 291.916 357.861 291.916C356.113 291.916 354.497 290.774 353.984 289.003H353.965ZM180.885 283.788C178.813 282.97 177.787 280.609 178.604 278.516C179.422 276.441 181.778 275.413 183.868 276.251C185.94 277.069 186.966 279.429 186.13 281.523C185.503 283.122 183.982 284.093 182.367 284.093C181.873 284.093 181.36 283.997 180.885 283.807V283.788ZM347.656 273.319C346.63 271.34 347.39 268.884 349.385 267.857C351.381 266.829 353.813 267.59 354.839 269.589C355.866 271.587 355.105 274.024 353.11 275.051C352.521 275.356 351.875 275.508 351.248 275.508C349.785 275.508 348.378 274.709 347.656 273.319ZM188.239 267.704C186.358 266.505 185.807 263.993 187.004 262.108C188.201 260.224 190.709 259.672 192.591 260.871C194.472 262.07 195.023 264.583 193.826 266.467C193.047 267.685 191.755 268.351 190.405 268.351C189.664 268.351 188.904 268.142 188.239 267.704ZM338.478 259.12C337.09 257.369 337.395 254.818 339.143 253.429C340.891 252.039 343.438 252.344 344.825 254.095C346.212 255.846 345.908 258.397 344.16 259.786C343.419 260.376 342.525 260.662 341.651 260.662C340.454 260.662 339.276 260.129 338.478 259.12ZM198.501 253.277C196.885 251.735 196.809 249.165 198.349 247.547C199.888 245.929 202.453 245.853 204.069 247.395C205.684 248.937 205.76 251.506 204.221 253.124C203.423 253.962 202.358 254.4 201.275 254.4C200.287 254.4 199.28 254.038 198.501 253.296V253.277ZM326.791 246.9C325.099 245.434 324.909 242.884 326.373 241.171C327.836 239.477 330.382 239.286 332.074 240.752C333.765 242.218 333.955 244.768 332.492 246.462C331.694 247.395 330.553 247.871 329.432 247.871C328.501 247.871 327.551 247.547 326.791 246.881V246.9ZM211.29 241.057C209.979 239.229 210.397 236.698 212.221 235.385C214.026 234.071 216.573 234.49 217.865 236.317C219.176 238.144 218.758 240.676 216.934 241.97C216.212 242.484 215.394 242.732 214.577 242.732C213.323 242.732 212.088 242.142 211.29 241.038V241.057ZM313.014 237.098C311.075 235.975 310.41 233.5 311.531 231.559C312.652 229.617 315.123 228.951 317.061 230.074C319 231.197 319.665 233.671 318.543 235.613C317.802 236.926 316.434 237.65 315.028 237.65C314.344 237.65 313.641 237.478 313.014 237.117V237.098ZM226.15 231.464C225.219 229.427 226.093 227.01 228.127 226.077C230.16 225.144 232.554 226.02 233.504 228.056C234.436 230.093 233.561 232.51 231.528 233.443C230.977 233.69 230.407 233.824 229.837 233.824C228.298 233.824 226.834 232.948 226.15 231.464ZM297.64 230.093C295.531 229.37 294.39 227.067 295.132 224.935C295.854 222.822 298.153 221.68 300.281 222.422C302.391 223.146 303.531 225.449 302.79 227.581C302.22 229.256 300.642 230.321 298.97 230.321C298.533 230.321 298.096 230.245 297.659 230.093H297.64ZM242.55 224.897C242.018 222.727 243.348 220.519 245.514 219.986C247.681 219.453 249.885 220.785 250.417 222.955C250.949 225.125 249.619 227.333 247.453 227.866C247.13 227.942 246.807 227.98 246.484 227.98C244.659 227.98 243.006 226.743 242.55 224.897ZM281.221 226.153C279.017 225.829 277.459 223.793 277.782 221.566C278.086 219.358 280.138 217.797 282.361 218.121C284.566 218.425 286.124 220.481 285.801 222.708C285.516 224.745 283.787 226.191 281.791 226.191C281.601 226.191 281.411 226.191 281.221 226.153ZM259.919 221.566C259.805 219.32 261.515 217.416 263.757 217.302C263.757 217.302 263.814 217.302 263.852 217.302C263.852 217.302 263.928 217.302 263.966 217.302C266.19 217.188 268.09 218.92 268.204 221.147C268.318 223.393 266.589 225.297 264.366 225.392C264.366 225.392 264.309 225.392 264.271 225.392C264.271 225.392 264.214 225.392 264.175 225.392C264.175 225.392 264.042 225.392 263.966 225.392C261.819 225.392 260.033 223.717 259.919 221.547V221.566Z" fill="#F2EAE1"/>
<path d="M264.641 395.993C262.304 395.879 260.498 393.88 260.612 391.52C260.726 389.16 262.722 387.352 265.078 387.485C267.434 387.599 269.24 389.598 269.107 391.958C268.993 394.242 267.111 396.012 264.869 396.012C264.869 396.012 264.717 396.012 264.66 396.012L264.641 395.993ZM278.627 391.33C278.209 389.008 279.748 386.8 282.048 386.381C284.366 385.962 286.571 387.485 286.989 389.807C287.407 392.129 285.867 394.337 283.568 394.756C283.302 394.794 283.055 394.832 282.808 394.832C280.794 394.832 279.007 393.386 278.627 391.33ZM245.923 392.834C243.662 392.167 242.369 389.807 243.034 387.542C243.7 385.277 246.056 383.983 248.317 384.649C250.579 385.315 251.871 387.675 251.206 389.94C250.674 391.806 248.963 393.005 247.12 393.005C246.721 393.005 246.322 392.948 245.923 392.834ZM296.11 387.028C295.16 384.877 296.148 382.365 298.295 381.413C300.443 380.462 302.951 381.451 303.901 383.602C304.852 385.753 303.863 388.265 301.716 389.217C301.165 389.465 300.576 389.579 300.006 389.579C298.371 389.579 296.813 388.627 296.11 387.028ZM228.459 385.41C226.426 384.249 225.704 381.642 226.863 379.605C228.022 377.549 230.625 376.845 232.659 378.006C234.711 379.167 235.414 381.775 234.255 383.811C233.476 385.182 232.032 385.962 230.549 385.962C229.827 385.962 229.124 385.791 228.459 385.41ZM312.13 378.767C310.705 376.883 311.085 374.218 312.966 372.791C314.847 371.363 317.508 371.744 318.933 373.628C320.358 375.513 319.978 378.177 318.097 379.605C317.337 380.176 316.424 380.462 315.531 380.462C314.239 380.462 312.966 379.871 312.13 378.767ZM213.18 374.161C211.451 372.562 211.356 369.86 212.971 368.146C214.568 366.414 217.266 366.319 218.976 367.937C220.706 369.536 220.801 372.239 219.185 373.952C218.349 374.846 217.209 375.303 216.069 375.303C215.024 375.303 213.998 374.923 213.18 374.161ZM325.812 367.023C324.007 365.52 323.76 362.836 325.242 361.028C326.743 359.219 329.423 358.972 331.228 360.476C333.033 361.979 333.299 364.663 331.798 366.471C330.962 367.48 329.746 368.013 328.529 368.013C327.579 368.013 326.61 367.69 325.812 367.023ZM200.885 359.695C199.574 357.735 200.106 355.089 202.064 353.795C204.021 352.481 206.662 353.014 207.974 354.975C209.285 356.935 208.753 359.581 206.795 360.895C206.073 361.389 205.256 361.618 204.439 361.618C203.071 361.618 201.722 360.952 200.904 359.733L200.885 359.695ZM336.435 352.462C334.325 351.416 333.47 348.865 334.515 346.752C335.561 344.639 338.107 343.783 340.216 344.83C342.326 345.877 343.181 348.427 342.136 350.54C341.395 352.044 339.893 352.9 338.316 352.9C337.689 352.9 337.043 352.767 336.435 352.462ZM192.239 342.774C191.422 340.566 192.543 338.111 194.747 337.292C196.952 336.474 199.403 337.597 200.22 339.805C201.038 342.013 199.916 344.468 197.712 345.287C197.218 345.477 196.724 345.553 196.23 345.553C194.5 345.553 192.885 344.487 192.239 342.774ZM343.428 335.827C341.148 335.294 339.703 333.01 340.235 330.726C340.767 328.441 343.048 326.995 345.328 327.528C347.609 328.061 349.053 330.345 348.521 332.648C348.065 334.628 346.316 335.96 344.378 335.96C344.055 335.96 343.732 335.922 343.428 335.846V335.827ZM187.754 324.311C187.469 321.97 189.123 319.857 191.46 319.572C193.797 319.286 195.907 320.942 196.192 323.283C196.477 325.624 194.823 327.737 192.486 328.023C192.315 328.042 192.125 328.061 191.954 328.061C189.845 328.061 188.001 326.481 187.735 324.311H187.754ZM342.079 313.804C342.079 311.444 343.96 309.522 346.297 309.503C348.654 309.503 350.573 311.387 350.592 313.728C350.592 316.088 348.711 317.992 346.373 318.011H346.335C343.998 318.011 342.098 316.126 342.079 313.785V313.804ZM191.384 310.017C189.047 309.769 187.355 307.656 187.621 305.315C187.868 302.974 189.978 301.28 192.315 301.546C194.652 301.794 196.344 303.907 196.078 306.248C195.85 308.437 194.006 310.055 191.859 310.055C191.707 310.055 191.555 310.055 191.403 310.036L191.384 310.017ZM340.026 296.902C339.475 294.618 340.881 292.315 343.162 291.763C345.442 291.211 347.742 292.619 348.293 294.904C348.844 297.188 347.438 299.491 345.157 300.043C344.815 300.119 344.473 300.157 344.15 300.157C342.231 300.157 340.482 298.844 340.026 296.902ZM194.443 292.239C192.239 291.439 191.08 289.003 191.859 286.795C192.638 284.587 195.071 283.426 197.294 284.206C199.498 284.987 200.657 287.423 199.878 289.65C199.251 291.401 197.617 292.486 195.869 292.486C195.394 292.486 194.918 292.41 194.443 292.239ZM334.135 280.952C333.071 278.858 333.888 276.288 335.998 275.222C338.088 274.156 340.653 274.975 341.718 277.088C342.782 279.181 341.965 281.751 339.855 282.817C339.228 283.141 338.582 283.274 337.917 283.274C336.378 283.274 334.876 282.417 334.116 280.952H334.135ZM201.532 275.66C199.555 274.385 199.004 271.739 200.277 269.76C201.551 267.78 204.192 267.228 206.168 268.503C208.145 269.779 208.696 272.424 207.423 274.404C206.605 275.66 205.237 276.345 203.85 276.345C203.052 276.345 202.254 276.117 201.532 275.66ZM324.71 266.79C323.19 265.001 323.399 262.298 325.204 260.776C326.99 259.253 329.689 259.462 331.209 261.251C332.729 263.041 332.52 265.743 330.734 267.266C329.936 267.951 328.948 268.275 327.978 268.275C326.781 268.275 325.584 267.761 324.729 266.771L324.71 266.79ZM212.249 261.137C210.615 259.443 210.672 256.74 212.382 255.103C214.074 253.486 216.772 253.543 218.406 255.237C220.022 256.931 219.965 259.633 218.273 261.251C217.456 262.051 216.392 262.432 215.328 262.432C214.207 262.432 213.085 261.994 212.249 261.118V261.137ZM312.282 255.161C310.381 253.771 309.982 251.106 311.37 249.203C312.757 247.299 315.417 246.9 317.318 248.289C319.218 249.679 319.617 252.343 318.23 254.247C317.394 255.389 316.101 255.979 314.79 255.979C313.916 255.979 313.023 255.713 312.282 255.141V255.161ZM225.989 249.469C224.791 247.433 225.476 244.825 227.49 243.645C229.523 242.446 232.127 243.131 233.305 245.149C234.502 247.185 233.818 249.793 231.804 250.973C231.119 251.373 230.378 251.563 229.656 251.563C228.193 251.563 226.768 250.821 225.989 249.469ZM297.516 246.709C295.35 245.796 294.343 243.283 295.274 241.113C296.186 238.944 298.695 237.935 300.861 238.867C303.027 239.781 304.034 242.294 303.103 244.463C302.419 246.081 300.842 247.052 299.189 247.052C298.638 247.052 298.067 246.938 297.516 246.709ZM242.046 241.285C241.362 239.039 242.616 236.659 244.859 235.955C247.101 235.27 249.476 236.526 250.18 238.772C250.864 241.018 249.609 243.397 247.367 244.102C246.949 244.235 246.531 244.292 246.113 244.292C244.289 244.292 242.616 243.112 242.046 241.285ZM281.212 241.913C278.893 241.513 277.335 239.324 277.734 237.002C278.133 234.68 280.319 233.119 282.637 233.519C284.955 233.919 286.514 236.107 286.114 238.43C285.772 240.504 283.967 241.989 281.934 241.989C281.706 241.989 281.459 241.97 281.212 241.932V241.913ZM259.567 237.078C259.415 234.737 261.182 232.7 263.539 232.548C263.539 232.548 263.596 232.548 263.634 232.548C263.634 232.548 263.691 232.548 263.71 232.548C266.047 232.396 268.081 234.185 268.233 236.526C268.385 238.867 266.598 240.904 264.261 241.056C264.261 241.056 264.204 241.056 264.185 241.056C264.185 241.056 264.147 241.056 264.109 241.056C264.014 241.056 263.919 241.056 263.824 241.056C261.6 241.056 259.738 239.324 259.586 237.078H259.567Z" fill="#F2EAE1"/>
<path d="M264.62 380.752C262.168 380.599 260.287 378.487 260.439 376.012C260.591 373.557 262.701 371.673 265.171 371.825C267.622 371.977 269.504 374.09 269.352 376.564C269.2 378.924 267.242 380.752 264.905 380.752C264.905 380.752 264.715 380.752 264.62 380.752ZM278.986 375.746C278.416 373.348 279.898 370.93 282.293 370.359C284.687 369.788 287.101 371.273 287.671 373.671C288.241 376.069 286.758 378.487 284.364 379.058C284.022 379.134 283.661 379.191 283.319 379.191C281.305 379.191 279.48 377.801 278.986 375.765V375.746ZM245.218 376.564C242.918 375.689 241.759 373.1 242.633 370.797C243.507 368.494 246.092 367.333 248.391 368.208C250.691 369.084 251.85 371.672 250.976 373.976C250.291 375.765 248.6 376.85 246.795 376.85C246.263 376.85 245.731 376.755 245.218 376.564ZM296.64 370.036C295.386 367.904 296.089 365.182 298.198 363.907C300.308 362.65 303.044 363.355 304.317 365.467C305.572 367.599 304.868 370.321 302.759 371.596C302.037 372.015 301.258 372.224 300.498 372.224C298.978 372.224 297.495 371.444 296.659 370.036H296.64ZM227.944 366.819C226.005 365.296 225.663 362.498 227.165 360.557C228.685 358.615 231.478 358.254 233.417 359.776C235.355 361.299 235.716 364.097 234.196 366.038C233.322 367.161 232.01 367.751 230.68 367.751C229.73 367.751 228.761 367.447 227.944 366.8V366.819ZM311.805 359.357C309.98 357.702 309.847 354.865 311.501 353.057C313.154 351.23 315.966 351.097 317.791 352.753C319.615 354.409 319.748 357.245 318.095 359.072C317.22 360.043 316.004 360.538 314.788 360.538C313.724 360.538 312.641 360.157 311.805 359.377V359.357ZM214.281 352.429C212.874 350.412 213.368 347.613 215.383 346.205C217.397 344.796 220.191 345.272 221.597 347.309C223.003 349.327 222.528 352.125 220.495 353.533C219.715 354.085 218.822 354.333 217.948 354.333C216.542 354.333 215.155 353.666 214.281 352.429ZM323.168 344.663C320.945 343.616 319.976 340.952 321.021 338.725C322.066 336.498 324.727 335.527 326.95 336.574C329.173 337.621 330.143 340.285 329.097 342.512C328.337 344.13 326.741 345.082 325.05 345.082C324.423 345.082 323.777 344.949 323.168 344.663ZM205.463 334.632C204.703 332.272 205.995 329.76 208.352 329.017C210.708 328.256 213.216 329.55 213.958 331.91C214.699 334.252 213.406 336.783 211.069 337.525C210.613 337.678 210.157 337.735 209.701 337.735C207.819 337.735 206.071 336.517 205.463 334.632ZM329.706 327.285C327.273 326.943 325.563 324.697 325.905 322.241C326.247 319.805 328.489 318.092 330.941 318.434C333.373 318.777 335.083 321.023 334.741 323.478C334.437 325.705 332.518 327.323 330.333 327.323C330.124 327.323 329.915 327.323 329.706 327.285ZM202.29 315.027C202.252 312.553 204.228 310.535 206.698 310.497C209.169 310.459 211.183 312.439 211.221 314.913C211.259 317.387 209.283 319.405 206.812 319.443H206.755C204.323 319.443 202.328 317.483 202.29 315.027ZM325.715 305.034C325.316 302.598 326.988 300.295 329.401 299.914C331.834 299.515 334.114 301.19 334.513 303.607C334.912 306.043 333.259 308.327 330.827 308.727C330.58 308.765 330.352 308.784 330.105 308.784C327.957 308.784 326.057 307.223 325.696 305.034H325.715ZM208.029 300.885C205.672 300.181 204.323 297.706 205.026 295.327C205.729 292.967 208.2 291.615 210.575 292.32C212.931 293.024 214.281 295.498 213.596 297.878C213.026 299.819 211.24 301.075 209.321 301.075C208.903 301.075 208.485 301.018 208.048 300.885H208.029ZM320.508 288.646C319.406 286.438 320.318 283.754 322.522 282.669C324.727 281.565 327.406 282.479 328.489 284.687C329.592 286.895 328.679 289.579 326.475 290.683C325.848 291.006 325.164 291.14 324.499 291.14C322.845 291.14 321.268 290.226 320.508 288.646ZM214.68 283.526C212.627 282.155 212.076 279.396 213.444 277.34C214.813 275.284 217.587 274.732 219.639 276.103C221.692 277.473 222.243 280.252 220.875 282.289C220.02 283.583 218.594 284.287 217.15 284.287C216.295 284.287 215.44 284.04 214.68 283.545V283.526ZM310.683 274.542C308.992 272.753 309.068 269.917 310.854 268.223C312.641 266.529 315.472 266.605 317.163 268.394C318.855 270.183 318.779 273.019 316.992 274.713C316.137 275.532 315.035 275.931 313.933 275.931C312.755 275.931 311.577 275.475 310.702 274.542H310.683ZM226.12 268.908C224.561 267.004 224.846 264.187 226.747 262.627C228.647 261.066 231.459 261.351 233.018 263.255C234.576 265.158 234.31 267.975 232.391 269.536C231.554 270.221 230.566 270.545 229.559 270.545C228.267 270.545 226.994 269.993 226.101 268.908H226.12ZM297.153 263.959C295.006 262.741 294.246 260.019 295.462 257.868C296.678 255.717 299.396 254.956 301.543 256.174C303.69 257.392 304.45 260.114 303.234 262.265C302.417 263.712 300.897 264.53 299.358 264.53C298.616 264.53 297.856 264.34 297.172 263.959H297.153ZM241.341 258.306C240.41 256.022 241.512 253.414 243.792 252.481C246.073 251.549 248.676 252.653 249.607 254.937C250.539 257.221 249.436 259.829 247.156 260.761C246.605 260.99 246.035 261.085 245.484 261.085C243.716 261.085 242.044 260.038 241.341 258.306ZM281.096 257.83C278.701 257.316 277.162 254.937 277.694 252.52C278.226 250.102 280.601 248.579 282.996 249.093C285.409 249.626 286.929 252.006 286.397 254.404C285.941 256.498 284.098 257.925 282.046 257.925C281.723 257.925 281.419 257.887 281.096 257.83ZM259.014 252.691C258.805 250.235 260.61 248.066 263.081 247.856C263.081 247.856 263.119 247.856 263.157 247.856C263.157 247.856 263.195 247.856 263.214 247.856C265.665 247.647 267.831 249.474 268.04 251.929C268.249 254.385 266.425 256.555 263.974 256.764C263.974 256.764 263.936 256.764 263.917 256.764C263.917 256.764 263.879 256.764 263.841 256.764C263.708 256.764 263.575 256.764 263.442 256.764C261.161 256.764 259.204 255.013 258.995 252.691H259.014Z" fill="#F2EAE1"/>
<path d="M269.783 361.29C269.479 358.74 271.284 356.398 273.85 356.094C276.415 355.789 278.733 357.617 279.037 360.167C279.341 362.737 277.536 365.059 274.971 365.364C274.781 365.383 274.591 365.402 274.401 365.402C272.082 365.402 270.068 363.669 269.783 361.29ZM257.146 364.412C254.637 363.822 253.079 361.309 253.649 358.797C254.238 356.284 256.747 354.723 259.255 355.314C261.764 355.904 263.322 358.416 262.733 360.929C262.239 363.079 260.319 364.545 258.191 364.545C257.83 364.545 257.488 364.507 257.127 364.412H257.146ZM285.765 358.112C284.605 355.808 285.517 352.991 287.817 351.83C290.116 350.669 292.929 351.583 294.088 353.886C295.266 356.189 294.335 359.006 292.036 360.167C291.351 360.51 290.629 360.681 289.926 360.681C288.235 360.681 286.582 359.748 285.765 358.131V358.112ZM240.727 357.388C238.561 355.98 237.953 353.087 239.378 350.917C240.784 348.747 243.673 348.138 245.839 349.546C248.005 350.955 248.613 353.848 247.188 356.018C246.295 357.388 244.794 358.15 243.274 358.15C242.399 358.15 241.506 357.902 240.727 357.388ZM299.713 349.641C297.832 347.871 297.736 344.921 299.485 343.037C301.252 341.152 304.198 341.057 306.079 342.808C307.96 344.578 308.055 347.529 306.307 349.413C305.395 350.403 304.141 350.898 302.905 350.898C301.765 350.898 300.625 350.479 299.713 349.641ZM227.691 345.187C226.133 343.132 226.551 340.201 228.603 338.64C230.655 337.098 233.582 337.498 235.14 339.553C236.679 341.609 236.28 344.54 234.228 346.101C233.392 346.729 232.404 347.034 231.416 347.034C229.99 347.034 228.603 346.387 227.691 345.168V345.187ZM309.937 336.908C307.561 335.899 306.459 333.139 307.485 330.779C308.492 328.399 311.248 327.315 313.604 328.323C315.979 329.332 317.082 332.092 316.055 334.452C315.295 336.222 313.585 337.288 311.761 337.288C311.153 337.288 310.526 337.155 309.937 336.908ZM219.615 329.237C218.873 326.763 220.261 324.155 222.731 323.413C225.202 322.67 227.805 324.06 228.546 326.534C229.287 329.009 227.9 331.616 225.43 332.359C224.974 332.492 224.517 332.568 224.08 332.568C222.085 332.568 220.223 331.274 219.615 329.256V329.237ZM315.2 321.452C312.635 321.319 310.659 319.111 310.792 316.541C310.925 313.972 313.129 311.992 315.694 312.125C318.26 312.259 320.236 314.467 320.103 317.036C319.97 319.53 317.918 321.452 315.447 321.452C315.447 321.452 315.276 321.452 315.2 321.452ZM221.876 316.427C219.311 316.294 217.334 314.105 217.467 311.516C217.6 308.947 219.805 306.967 222.37 307.1C224.936 307.234 226.912 309.442 226.779 312.011C226.646 314.505 224.593 316.446 222.123 316.446C222.123 316.446 221.952 316.446 221.876 316.446V316.427ZM309.043 302.018C308.302 299.544 309.689 296.936 312.16 296.194C314.63 295.452 317.234 296.841 317.975 299.315C318.716 301.79 317.329 304.398 314.858 305.14C314.402 305.273 313.946 305.349 313.509 305.349C311.514 305.349 309.651 304.055 309.043 302.018ZM223.966 300.229C221.591 299.22 220.489 296.479 221.515 294.1C222.522 291.721 225.259 290.617 227.634 291.626C230.009 292.635 231.112 295.394 230.104 297.755C229.344 299.525 227.615 300.591 225.81 300.591C225.202 300.591 224.574 300.477 223.985 300.21L223.966 300.229ZM302.449 288.98C300.91 286.924 301.309 283.993 303.38 282.432C305.452 280.891 308.359 281.29 309.917 283.365C311.457 285.421 311.058 288.352 308.986 289.913C308.15 290.541 307.162 290.845 306.193 290.845C304.787 290.845 303.38 290.198 302.468 288.98H302.449ZM231.473 285.725C229.591 283.974 229.477 281.005 231.245 279.12C233.012 277.236 235.957 277.122 237.839 278.892C239.72 280.662 239.834 283.612 238.067 285.497C237.155 286.487 235.9 286.981 234.646 286.981C233.506 286.981 232.366 286.563 231.473 285.725ZM291.789 278.968C289.622 277.56 289.014 274.666 290.439 272.497C291.846 270.346 294.734 269.737 296.9 271.145C299.048 272.554 299.656 275.447 298.25 277.617C297.356 278.987 295.855 279.729 294.335 279.729C293.461 279.729 292.568 279.482 291.789 278.968ZM243.464 274.647C242.285 272.344 243.217 269.527 245.497 268.366C247.796 267.186 250.609 268.119 251.768 270.403C252.927 272.706 252.015 275.523 249.716 276.684C249.031 277.027 248.309 277.198 247.606 277.198C245.915 277.198 244.262 276.265 243.445 274.647H243.464ZM278.372 273.22C275.864 272.63 274.306 270.117 274.895 267.605C275.484 265.092 277.992 263.532 280.501 264.122C283.009 264.712 284.567 267.224 283.978 269.737C283.484 271.887 281.565 273.353 279.436 273.353C279.075 273.353 278.733 273.315 278.372 273.22ZM258.514 268.366C258.21 265.797 260.015 263.474 262.581 263.17H262.619C262.619 263.17 262.638 263.17 262.657 263.17C265.222 262.865 267.541 264.693 267.845 267.243C268.149 269.794 266.343 272.135 263.778 272.439C263.778 272.439 263.721 272.439 263.702 272.439C263.512 272.458 263.322 272.478 263.132 272.478C260.813 272.478 258.799 270.745 258.495 268.366H258.514Z" fill="#F2EAE1"/>
<path d="M269.953 346.15C269.44 343.504 271.169 340.954 273.81 340.44C276.452 339.926 278.998 341.658 279.511 344.304C280.024 346.95 278.295 349.5 275.654 350.014C275.35 350.071 275.027 350.109 274.723 350.109C272.442 350.109 270.39 348.491 269.953 346.15ZM256.879 348.663C254.332 347.787 253.002 345.008 253.876 342.458C254.75 339.907 257.525 338.575 260.071 339.45C262.618 340.326 263.948 343.124 263.074 345.655C262.371 347.673 260.489 348.929 258.475 348.929C257.943 348.929 257.411 348.834 256.879 348.663ZM285.725 341.297C283.958 339.26 284.186 336.176 286.22 334.425C288.253 332.655 291.331 332.883 293.08 334.92C294.847 336.957 294.619 340.04 292.586 341.81C291.654 342.61 290.533 343.01 289.393 343.01C288.025 343.01 286.676 342.439 285.706 341.335L285.725 341.297ZM241.315 338.099C239.548 336.062 239.776 332.979 241.809 331.228C243.843 329.457 246.921 329.686 248.669 331.722C250.437 333.759 250.209 336.843 248.175 338.613C247.263 339.412 246.123 339.812 244.983 339.812C243.615 339.812 242.265 339.241 241.296 338.137L241.315 338.099ZM296.956 329.191C294.41 328.296 293.08 325.517 293.954 322.986C294.847 320.435 297.621 319.103 300.149 319.978C302.695 320.873 304.025 323.652 303.151 326.184C302.448 328.201 300.567 329.457 298.553 329.457C298.02 329.457 297.488 329.362 296.956 329.191ZM233.106 321.14C232.593 318.494 234.322 315.943 236.963 315.429C239.605 314.915 242.151 316.647 242.664 319.293C243.177 321.939 241.448 324.49 238.807 325.003C238.503 325.061 238.18 325.099 237.876 325.099C235.595 325.099 233.543 323.481 233.106 321.14ZM294.942 309.224C294.429 306.578 296.158 304.028 298.8 303.514C301.441 303 303.987 304.732 304.501 307.378C305.014 310.024 303.284 312.574 300.643 313.088C300.339 313.145 300.035 313.183 299.731 313.183C297.431 313.183 295.398 311.565 294.961 309.224H294.942ZM237.438 308.539C234.892 307.663 233.562 304.884 234.436 302.334C235.31 299.783 238.085 298.451 240.631 299.327C243.177 300.202 244.527 303 243.633 305.532C242.93 307.549 241.049 308.805 239.035 308.805C238.503 308.805 237.971 308.71 237.438 308.539ZM288.937 296.795C287.17 294.758 287.398 291.675 289.431 289.924C291.464 288.154 294.543 288.382 296.291 290.419C298.058 292.455 297.83 295.539 295.797 297.309C294.885 298.108 293.745 298.508 292.605 298.508C291.236 298.508 289.887 297.937 288.918 296.814L288.937 296.795ZM244.489 293.597C242.721 291.561 242.949 288.477 244.964 286.707C246.997 284.937 250.076 285.165 251.843 287.183C253.61 289.219 253.382 292.303 251.368 294.073C250.437 294.873 249.296 295.272 248.175 295.272C246.807 295.272 245.458 294.701 244.489 293.597ZM277.535 289.048C274.989 288.173 273.658 285.375 274.533 282.843C275.426 280.293 278.2 278.96 280.728 279.836C283.274 280.73 284.604 283.509 283.73 286.041C283.027 288.058 281.146 289.315 279.131 289.315C278.599 289.315 278.067 289.219 277.535 289.048ZM258.057 284.194C257.544 281.568 259.254 279.017 261.877 278.484C261.877 278.484 261.953 278.484 261.991 278.465C264.632 277.951 267.178 279.683 267.691 282.348C268.186 284.994 266.456 287.544 263.815 288.058C263.815 288.058 263.796 288.058 263.777 288.058C263.473 288.116 263.15 288.154 262.846 288.154C260.565 288.154 258.513 286.536 258.076 284.194H258.057Z" fill="#F2EAE1"/>
<path d="M270.393 331.614C269.329 329.006 270.583 326.056 273.187 324.99C275.79 323.924 278.735 325.18 279.8 327.788C280.864 330.396 279.61 333.346 277.006 334.412C276.379 334.659 275.733 334.793 275.106 334.793C273.111 334.793 271.21 333.594 270.412 331.614H270.393ZM255.476 331.424C253.252 329.711 252.853 326.513 254.583 324.286C256.312 322.078 259.485 321.659 261.709 323.391C263.913 325.123 264.331 328.302 262.602 330.529C261.595 331.823 260.112 332.49 258.592 332.49C257.509 332.49 256.407 332.147 255.495 331.424H255.476ZM284.645 321.564C281.871 321.164 279.933 318.614 280.332 315.816C280.712 313.037 283.277 311.095 286.071 311.495C288.845 311.895 290.783 314.445 290.384 317.243C290.023 319.794 287.857 321.621 285.368 321.621C285.121 321.621 284.893 321.621 284.645 321.564ZM251.599 316.977C248.825 316.596 246.886 314.027 247.266 311.248C247.646 308.469 250.212 306.527 252.986 306.908C255.761 307.288 257.699 309.858 257.319 312.637C256.977 315.188 254.792 317.015 252.302 317.015C252.074 317.015 251.827 317.015 251.599 316.958V316.977ZM275.961 305.062C273.757 303.329 273.358 300.151 275.068 297.924C276.797 295.716 279.99 295.316 282.194 297.029C284.398 298.761 284.797 301.959 283.087 304.167C282.08 305.461 280.579 306.127 279.078 306.127C277.994 306.127 276.892 305.766 275.961 305.062ZM257.813 300.684C256.749 298.076 258.003 295.126 260.588 294.06C260.588 294.06 260.626 294.06 260.645 294.041C263.248 292.994 266.193 294.25 267.258 296.858C268.303 299.465 267.049 302.416 264.445 303.482L264.369 303.52C263.761 303.767 263.134 303.881 262.507 303.881C260.511 303.881 258.611 302.682 257.813 300.722V300.684Z" fill="#F2EAE1"/>
<path d="M263.484 314.264C263.484 311.352 265.841 308.973 268.767 308.973C271.675 308.973 274.05 311.333 274.05 314.264C274.05 317.176 271.694 319.556 268.767 319.556C265.86 319.556 263.484 317.195 263.484 314.264Z" fill="#F2EAE1"/>
</g>
</g>
<defs>
<clipPath id="clip0_418_265">
<rect width="1440" height="644" fill="white"/>
</clipPath>
</defs>
</svg>
