<svg width="18" height="15" viewBox="0 0 18 15" fill="none" xmlns="http://www.w3.org/2000/svg">
<path d="M12 3.75C12 3.05252 12 2.70378 11.9233 2.41766C11.7153 1.6412 11.1088 1.03472 10.3323 0.826667C10.0462 0.75 9.69748 0.75 9 0.75C8.30252 0.75 7.95378 0.75 7.66766 0.826667C6.8912 1.03472 6.28472 1.6412 6.07667 2.41766C6 2.70378 6 3.05252 6 3.75M9.6 11.625H13.275C13.485 11.625 13.59 11.625 13.6702 11.5841C13.7408 11.5482 13.7982 11.4908 13.8341 11.4202C13.875 11.34 13.875 11.235 13.875 11.025V9.225C13.875 9.01498 13.875 8.90997 13.8341 8.82975C13.7982 8.75919 13.7408 8.70183 13.6702 8.66587C13.59 8.625 13.485 8.625 13.275 8.625H9.6C9.38998 8.625 9.28497 8.625 9.20475 8.66587C9.13419 8.70183 9.07683 8.75919 9.04087 8.82975C9 8.90997 9 9.01498 9 9.225V11.025C9 11.235 9 11.34 9.04087 11.4202C9.07683 11.4908 9.13419 11.5482 9.20475 11.5841C9.28497 11.625 9.38998 11.625 9.6 11.625ZM5.1 14.25H12.9C14.1601 14.25 14.7902 14.25 15.2715 14.0048C15.6948 13.789 16.039 13.4448 16.2548 13.0215C16.5 12.5402 16.5 11.9101 16.5 10.65V7.35C16.5 6.08988 16.5 5.45982 16.2548 4.97852C16.039 4.55516 15.6948 4.21095 15.2715 3.99524C14.7902 3.75 14.1601 3.75 12.9 3.75H5.1C3.83988 3.75 3.20982 3.75 2.72852 3.99524C2.30516 4.21095 1.96095 4.55516 1.74524 4.97852C1.5 5.45982 1.5 6.08988 1.5 7.35V10.65C1.5 11.9101 1.5 12.5402 1.74524 13.0215C1.96095 13.4448 2.30516 13.789 2.72852 14.0048C3.20982 14.25 3.83988 14.25 5.1 14.25Z" stroke="#94A3B8" stroke-width="1.5" stroke-linecap="round" stroke-linejoin="round"/>
</svg>
