<svg width="524" height="712" viewBox="0 0 524 712" fill="none" xmlns="http://www.w3.org/2000/svg">
<rect width="524" height="712" fill="#F7F3ED"/>
<path d="M273.164 96.1137C337.66 141.117 382.344 245.398 338.3 311.284C294.255 377.184 178.154 379.739 113.672 334.736C49.1759 289.733 32.6043 199.829 76.6486 133.929C120.693 68.0285 208.682 51.0961 273.178 96.0992L273.164 96.1137Z" fill="#F2EAE1"/>
<path d="M305.895 564.211C290.432 474.059 338.47 353.063 426.701 337.264C514.931 321.464 609.956 416.829 625.419 506.98C640.882 597.132 581.9 683.028 493.655 698.842C405.425 714.642 321.358 654.377 305.881 564.211H305.895Z" fill="#F2EAE1"/>
<path d="M531.148 289.181C600.654 289.181 656.999 231.609 656.999 160.591C656.999 89.572 600.654 32 531.148 32C461.642 32 405.297 89.572 405.297 160.591C405.297 231.609 461.642 289.181 531.148 289.181Z" fill="#F2EAE1"/>
</svg>
