<svg width="45" height="46" viewBox="0 0 45 46" fill="none" xmlns="http://www.w3.org/2000/svg">
<circle cx="23" cy="22" r="8" fill="#A48B6F"/>
<path d="M44.9744 26.7019C44.2413 30.8596 42.3543 34.7276 39.5286 37.8644C36.703 41.0013 33.0526 43.2807 28.9938 44.4428C24.935 45.6048 20.6313 45.6025 16.5737 44.4363C12.5161 43.2701 8.86806 40.9868 6.0457 37.847C3.22333 34.7072 1.34034 30.8373 0.61154 26.6789C-0.117258 22.5204 0.337491 18.2408 1.9239 14.3283C3.51032 10.4159 6.16451 7.0281 9.58367 4.55153C13.0028 2.07496 17.0493 0.609313 21.2613 0.321812L21.8532 8.99267C19.2665 9.16922 16.7816 10.0693 14.6819 11.5901C12.5822 13.111 10.9522 15.1914 9.97802 17.5941C9.0038 19.9967 8.72454 22.6248 9.1721 25.1786C9.61965 27.7323 10.776 30.1088 12.5092 32.037C14.2424 33.9651 16.4827 35.3673 18.9745 36.0835C21.4663 36.7996 24.1092 36.801 26.6017 36.0874C29.0942 35.3738 31.3359 33.974 33.0711 32.0476C34.8064 30.1213 35.9652 27.746 36.4154 25.1927L44.9744 26.7019Z" fill="#EDE8E2"/>
</svg>
