<svg width="46" height="37" viewBox="0 0 46 37" fill="none" xmlns="http://www.w3.org/2000/svg">
<path d="M34 0.00390625C34 2.92129 32.8411 5.71918 30.7782 7.78208C28.7153 9.84498 25.9174 11.0039 23 11.0039C20.0826 11.0039 17.2847 9.84498 15.2218 7.78208C13.1589 5.71918 12 2.92129 12 0.00390816L23 0.00390625H34Z" fill="#036280"/>
<path d="M45.3165 13.7911C45.3165 16.7487 44.734 19.6773 43.6022 22.4097C42.4704 25.1421 40.8114 27.6249 38.7201 29.7162C36.6288 31.8075 34.146 33.4665 31.4136 34.5983C28.6812 35.7301 25.7526 36.3126 22.795 36.3126C19.8374 36.3126 16.9088 35.7301 14.1764 34.5983C11.4439 33.4665 8.96116 31.8075 6.86985 29.7162C4.77853 27.6249 3.1196 25.1421 1.98779 22.4097C0.855974 19.6773 0.273437 16.7487 0.273438 13.7911L22.795 13.7911L45.3165 13.7911Z" fill="#CDE0E6" fill-opacity="0.5"/>
</svg>
