<svg width="40" height="40" viewBox="0 0 40 40" fill="none" xmlns="http://www.w3.org/2000/svg">
<g clip-path="url(#clip0_22_4469)">
<path d="M11.9854 23.7693H6.21393C5.27636 23.7693 4.51636 24.5293 4.51636 25.4669V38.3023C4.51636 39.2399 5.27636 39.9999 6.21393 39.9999H11.9853C12.9229 39.9999 13.6829 39.2399 13.6829 38.3023V25.4669C13.6829 24.5293 12.9229 23.7693 11.9854 23.7693Z" fill="#FFDC4A"/>
<path d="M6.93088 38.3023V25.4669C6.93088 24.5294 7.69088 23.7693 8.62846 23.7693H6.21393C5.27636 23.7693 4.51636 24.5293 4.51636 25.4669V38.3024C4.51636 39.24 5.27636 40 6.21393 40H8.62838C7.69088 39.9999 6.93088 39.2399 6.93088 38.3023Z" fill="#EDCA3A"/>
<path d="M24.4316 17.8826H18.6602C17.7226 17.8826 16.9626 18.6426 16.9626 19.5801V38.3024C16.9626 39.24 17.7226 39.9999 18.6602 39.9999H24.4316C25.3692 39.9999 26.1292 39.24 26.1292 38.3024V19.5801C26.1292 18.6426 25.3692 17.8826 24.4316 17.8826Z" fill="#FF3132"/>
<path d="M19.3772 38.3024V19.5801C19.3772 18.6426 20.1372 17.8826 21.0748 17.8826H18.6603C17.7228 17.8826 16.9628 18.6426 16.9628 19.5801V38.3024C16.9628 39.24 17.7228 40 18.6603 40H21.0748C20.1372 40 19.3772 39.24 19.3772 38.3024Z" fill="#D82A2B"/>
<path d="M36.8779 11.9958H31.1065C30.1689 11.9958 29.4089 12.7558 29.4089 13.6934V38.3024C29.4089 39.2399 30.1689 39.9999 31.1065 39.9999H36.8779C37.8155 39.9999 38.5755 39.2399 38.5755 38.3024V13.6934C38.5754 12.7558 37.8154 11.9958 36.8779 11.9958Z" fill="#3CDCF9"/>
<path d="M31.8234 38.3024V13.6934C31.8234 12.7558 32.5834 11.9958 33.521 11.9958H31.1065C30.1689 11.9958 29.4089 12.7558 29.4089 13.6934V38.3024C29.4089 39.2399 30.1689 39.9999 31.1065 39.9999H33.521C32.5834 39.9999 31.8234 39.2399 31.8234 38.3024Z" fill="#30CBE8"/>
<path d="M38.4842 0.00739403L32.6539 0.767236L34.0632 2.65223L29.0702 6.38535L26.4439 4.06981C25.996 3.67489 25.3326 3.64825 24.8543 4.00575L13.6876 12.3545L11.0753 10.3976C10.6274 10.062 10.0119 10.0617 9.56369 10.3969L0.56543 17.1246L2.07605 19.1452L10.3183 12.9828L12.9306 14.9397C13.3785 15.2753 13.994 15.2756 14.4422 14.9404L25.5441 6.63988L28.1704 8.95542C28.6183 9.35034 29.2818 9.37706 29.76 9.01949L35.5738 4.6727L36.9844 6.55933L39.3615 1.18044C39.6264 0.581143 39.1339 -0.0772933 38.4842 0.00739403Z" fill="#2DC580"/>
</g>
<defs>
<clipPath id="clip0_22_4469">
<rect width="40" height="40" fill="white"/>
</clipPath>
</defs>
</svg>