<svg width="161" height="24" viewBox="0 0 161 24" fill="none" xmlns="http://www.w3.org/2000/svg">
<path d="M5.99 6.05V10.31H12.86V14.27H5.99V18.89H13.76V23H0.86V1.94H13.76V6.05H5.99ZM22.2205 19.04H28.9405V23H17.0905V1.94H22.2205V19.04ZM42.1273 23L37.7473 15.05H36.5173V23H31.3873V1.94H39.9973C41.6573 1.94 43.0673 2.23 44.2273 2.81C45.4073 3.39 46.2873 4.19 46.8673 5.21C47.4473 6.21 47.7373 7.33 47.7373 8.57C47.7373 9.97 47.3373 11.22 46.5373 12.32C45.7573 13.42 44.5973 14.2 43.0573 14.66L47.9173 23H42.1273ZM36.5173 11.42H39.6973C40.6373 11.42 41.3373 11.19 41.7973 10.73C42.2773 10.27 42.5173 9.62 42.5173 8.78C42.5173 7.98 42.2773 7.35 41.7973 6.89C41.3373 6.43 40.6373 6.2 39.6973 6.2H36.5173V11.42ZM60.9177 23.21C58.9377 23.21 57.1177 22.75 55.4577 21.83C53.8177 20.91 52.5077 19.63 51.5277 17.99C50.5677 16.33 50.0877 14.47 50.0877 12.41C50.0877 10.35 50.5677 8.5 51.5277 6.86C52.5077 5.22 53.8177 3.94 55.4577 3.02C57.1177 2.1 58.9377 1.64 60.9177 1.64C62.8977 1.64 64.7077 2.1 66.3477 3.02C68.0077 3.94 69.3077 5.22 70.2477 6.86C71.2077 8.5 71.6877 10.35 71.6877 12.41C71.6877 14.47 71.2077 16.33 70.2477 17.99C69.2877 19.63 67.9877 20.91 66.3477 21.83C64.7077 22.75 62.8977 23.21 60.9177 23.21ZM60.9177 18.53C62.5977 18.53 63.9377 17.97 64.9377 16.85C65.9577 15.73 66.4677 14.25 66.4677 12.41C66.4677 10.55 65.9577 9.07 64.9377 7.97C63.9377 6.85 62.5977 6.29 60.9177 6.29C59.2177 6.29 57.8577 6.84 56.8377 7.94C55.8377 9.04 55.3377 10.53 55.3377 12.41C55.3377 14.27 55.8377 15.76 56.8377 16.88C57.8577 17.98 59.2177 18.53 60.9177 18.53ZM79.6716 1.94V23H74.5416V1.94H79.6716Z" fill="#060640"/>
<path d="M104.897 1.94V6.05H99.3167V23H94.1867V6.05H88.6067V1.94H104.897ZM123.251 14.36C123.251 14.84 123.221 15.34 123.161 15.86H111.551C111.631 16.9 111.961 17.7 112.541 18.26C113.141 18.8 113.871 19.07 114.731 19.07C116.011 19.07 116.901 18.53 117.401 17.45H122.861C122.581 18.55 122.071 19.54 121.331 20.42C120.611 21.3 119.701 21.99 118.601 22.49C117.501 22.99 116.271 23.24 114.911 23.24C113.271 23.24 111.811 22.89 110.531 22.19C109.251 21.49 108.251 20.49 107.531 19.19C106.811 17.89 106.451 16.37 106.451 14.63C106.451 12.89 106.801 11.37 107.501 10.07C108.221 8.77 109.221 7.77 110.501 7.07C111.781 6.37 113.251 6.02 114.911 6.02C116.531 6.02 117.971 6.36 119.231 7.04C120.491 7.72 121.471 8.69 122.171 9.95C122.891 11.21 123.251 12.68 123.251 14.36ZM118.001 13.01C118.001 12.13 117.701 11.43 117.101 10.91C116.501 10.39 115.751 10.13 114.851 10.13C113.991 10.13 113.261 10.38 112.661 10.88C112.081 11.38 111.721 12.09 111.581 13.01H118.001ZM124.938 14.63C124.938 12.89 125.288 11.37 125.988 10.07C126.708 8.77 127.698 7.77 128.958 7.07C130.238 6.37 131.698 6.02 133.338 6.02C135.438 6.02 137.188 6.57 138.588 7.67C140.008 8.77 140.938 10.32 141.378 12.32H135.918C135.458 11.04 134.568 10.4 133.248 10.4C132.308 10.4 131.558 10.77 130.998 11.51C130.438 12.23 130.158 13.27 130.158 14.63C130.158 15.99 130.438 17.04 130.998 17.78C131.558 18.5 132.308 18.86 133.248 18.86C134.568 18.86 135.458 18.22 135.918 16.94H141.378C140.938 18.9 140.008 20.44 138.588 21.56C137.168 22.68 135.418 23.24 133.338 23.24C131.698 23.24 130.238 22.89 128.958 22.19C127.698 21.49 126.708 20.49 125.988 19.19C125.288 17.89 124.938 16.37 124.938 14.63ZM154.412 6.08C156.332 6.08 157.872 6.72 159.032 8C160.192 9.26 160.772 11 160.772 13.22V23H155.672V13.91C155.672 12.79 155.382 11.92 154.802 11.3C154.222 10.68 153.442 10.37 152.462 10.37C151.482 10.37 150.702 10.68 150.122 11.3C149.542 11.92 149.252 12.79 149.252 13.91V23H144.122V0.8H149.252V8.51C149.772 7.77 150.482 7.18 151.382 6.74C152.282 6.3 153.292 6.08 154.412 6.08Z" fill="#236BF4"/>
</svg>