<svg width="60" height="60" viewBox="0 0 60 60" fill="none" xmlns="http://www.w3.org/2000/svg">
<g clip-path="url(#clip0_22_4395)">
<rect width="60" height="60" rx="12" fill="#ECF9FF" fill-opacity="0.8"/>
<g filter="url(#filter0_f_22_4395)">
<rect x="16" y="25" width="27" height="27" rx="10" fill="#7D89FF" fill-opacity="0.2"/>
</g>
<g clip-path="url(#clip1_22_4395)">
<path d="M21.2 39.6772C18.7814 39.6772 16.8132 41.7038 16.8132 44.1226V44.9999H23.8321L25.4982 43.1867C25.0905 41.1867 23.3185 39.6772 21.2 39.6772Z" fill="#FF5E70"/>
<path d="M21.1999 39.6773C19.2645 39.6773 17.6904 38.1033 17.6904 36.1679C17.6904 34.2322 19.2645 32.6584 21.1999 32.6584C23.1355 32.6584 24.7093 34.2322 24.7093 36.1679C24.7093 38.1033 23.1355 39.6773 21.1999 39.6773Z" fill="#FF5E70"/>
<path d="M38.7472 39.6772C36.6289 39.6772 34.8569 41.1867 34.4492 43.1867L36.1152 44.9999H43.1341V44.1226C43.1341 41.7038 41.166 39.6772 38.7472 39.6772Z" fill="#FF3651"/>
<path d="M38.7472 39.6773C36.8118 39.6773 35.2378 38.1033 35.2378 36.1679C35.2378 34.2322 36.8118 32.6584 38.7472 32.6584C40.6829 32.6584 42.2567 34.2322 42.2567 36.1679C42.2567 38.1033 40.6829 39.6773 38.7472 39.6773Z" fill="#FF3651"/>
<path d="M35.308 18.9365L31.6233 18.3925L29.9737 15L28.3242 18.3925L24.6394 18.9365L27.3066 21.5334L26.6749 25.1834L29.9737 23.4638L33.2726 25.1834L32.6409 21.5334L35.308 18.9365Z" fill="#FDBF00"/>
<path d="M42.7425 31.1573L39.4489 29.4267L36.1571 31.1573L36.7861 27.491L34.123 24.8951L37.803 24.3604L39.4491 21.0249L41.095 24.3604L44.9473 24.8951L42.1119 27.491L42.7425 31.1573Z" fill="#FF9100"/>
<path d="M23.7902 31.1573L20.4984 29.4267L17.2048 31.1573L17.8354 27.491L15 24.8951L18.8523 24.3604L20.4982 21.0249L22.1443 24.3604L25.8243 24.8951L23.1612 27.491L23.7902 31.1573Z" fill="#FDBF00"/>
<path d="M29.9737 27.3943C27.5521 27.3943 25.5869 29.3597 25.5869 31.7813C25.5869 34.2026 27.5521 36.168 29.9737 36.168C32.3952 36.168 34.3604 34.2026 34.3604 31.7813C34.3604 29.3597 32.3952 27.3943 29.9737 27.3943Z" fill="#7D89FF"/>
<path d="M29.9736 36.168C26.5871 36.168 23.832 38.9228 23.832 42.3096V45.0001H36.1152V42.3096C36.1152 38.9228 33.3602 36.168 29.9736 36.168Z" fill="#7D89FF"/>
<path d="M29.9736 36.168V27.3943C32.3952 27.3943 34.3604 29.3597 34.3604 31.7813C34.3604 34.2026 32.3952 36.168 29.9736 36.168Z" fill="#6B78F7"/>
<path d="M33.2725 25.1834L29.9736 23.4636V15L31.6232 18.3925L35.308 18.9365L32.6408 21.5334L33.2725 25.1834Z" fill="#FF9100"/>
<path d="M36.1152 42.3096V45.0001H29.9736V36.168C33.3602 36.168 36.1152 38.9228 36.1152 42.3096Z" fill="#6B78F7"/>
</g>
</g>
<defs>
<filter id="filter0_f_22_4395" x="6" y="15" width="47" height="47" filterUnits="userSpaceOnUse" color-interpolation-filters="sRGB">
<feFlood flood-opacity="0" result="BackgroundImageFix"/>
<feBlend mode="normal" in="SourceGraphic" in2="BackgroundImageFix" result="shape"/>
<feGaussianBlur stdDeviation="5" result="effect1_foregroundBlur_22_4395"/>
</filter>
<clipPath id="clip0_22_4395">
<rect width="60" height="60" rx="12" fill="white"/>
</clipPath>
<clipPath id="clip1_22_4395">
<rect width="30" height="30" fill="white" transform="translate(15 15)"/>
</clipPath>
</defs>
</svg>