<svg width="25" height="24" viewBox="0 0 25 24" fill="none" xmlns="http://www.w3.org/2000/svg">
<g clip-path="url(#clip0_10323_82181)">
<path d="M23.2215 9.91355L13.2621 9.91309C12.8223 9.91309 12.4658 10.2634 12.4658 10.6957V13.823C12.4658 14.2552 12.8223 14.6056 13.262 14.6056H18.8706C18.2564 16.1722 17.1102 17.4842 15.6477 18.3178L18.0392 22.387C21.8754 20.2062 24.1434 16.3799 24.1434 12.0965C24.1434 11.4866 24.0977 11.0506 24.0062 10.5597C23.9367 10.1867 23.6073 9.91355 23.2215 9.91355Z" fill="#167EE6"/>
<path d="M11.9351 19.3042C9.19039 19.3042 6.79429 17.8302 5.50739 15.6489L1.36768 17.9943C3.47435 21.5831 7.42083 23.9998 11.9351 23.9998C14.1496 23.9998 16.2392 23.4138 18.0393 22.3924V22.3868L15.6478 18.3176C14.554 18.9412 13.2881 19.3042 11.9351 19.3042Z" fill="#12B347"/>
<path d="M18.0393 22.3927V22.3871L15.6478 18.3179C14.5539 18.9414 13.2881 19.3044 11.9351 19.3044V24.0001C14.1496 24.0001 16.2393 23.414 18.0393 22.3927Z" fill="#0F993E"/>
<path d="M4.50379 11.9998C4.50379 10.67 4.873 9.42589 5.50731 8.35071L1.3676 6.00537C0.322774 7.76914 -0.273438 9.81748 -0.273438 11.9998C-0.273438 14.1821 0.322774 16.2304 1.3676 17.9942L5.50731 15.6489C4.873 14.5737 4.50379 13.3296 4.50379 11.9998Z" fill="#FFD500"/>
<path d="M11.9351 4.69566C13.7249 4.69566 15.369 5.32078 16.6531 6.36061C16.9699 6.61711 17.4303 6.59859 17.7205 6.31336L19.9748 4.09758C20.304 3.77395 20.2806 3.24422 19.9289 2.94431C17.7774 1.10967 14.978 0 11.9351 0C7.42083 0 3.47435 2.41673 1.36768 6.00558L5.50739 8.35092C6.79429 6.16969 9.19039 4.69566 11.9351 4.69566Z" fill="#FF4B26"/>
<path d="M16.6531 6.36061C16.9699 6.61711 17.4303 6.59859 17.7205 6.31336L19.9748 4.09758C20.304 3.77395 20.2805 3.24422 19.9288 2.94431C17.7773 1.10962 14.978 0 11.9351 0V4.69566C13.7248 4.69566 15.3689 5.32078 16.6531 6.36061Z" fill="#D93F21"/>
</g>
<defs>
<clipPath id="clip0_10323_82181">
<rect width="25" height="24" fill="white"/>
</clipPath>
</defs>
</svg>
