<svg width="20" height="20" viewBox="0 0 20 20" fill="none" xmlns="http://www.w3.org/2000/svg">
<path d="M10.0001 6.15H10C9.23854 6.15 8.49418 6.3758 7.86105 6.79884C7.22793 7.22189 6.73446 7.82317 6.44306 8.52667C6.15167 9.23016 6.07542 10.0043 6.22398 10.7511C6.37253 11.4979 6.73921 12.1839 7.27764 12.7224C7.81607 13.2608 8.50208 13.6275 9.2489 13.776C9.99573 13.9246 10.7698 13.8483 11.4733 13.5569C12.1768 13.2655 12.7781 12.7721 13.2012 12.1389C13.6242 11.5058 13.85 10.7615 13.85 10V9.9999C13.8489 8.97917 13.443 8.00055 12.7212 7.27878C11.9995 6.55702 11.0208 6.15106 10.0001 6.15ZM13.7501 1.775H13.75L6.25 1.775L6.24989 1.775C5.06347 1.77627 3.926 2.24814 3.08707 3.08707C2.24814 3.926 1.77627 5.06347 1.775 6.24989V6.25L1.775 13.75L1.775 13.7501C1.77627 14.9365 2.24814 16.074 3.08707 16.9129C3.926 17.7519 5.06347 18.2237 6.24989 18.225H6.25H13.75H13.7501C14.9365 18.2237 16.074 17.7519 16.9129 16.9129C17.7519 16.074 18.2237 14.9365 18.225 13.7501V13.75V6.25V6.24989C18.2237 5.06347 17.7519 3.926 16.9129 3.08707C16.074 2.24814 14.9365 1.77627 13.7501 1.775ZM10 12.4C9.52532 12.4 9.06131 12.2592 8.66663 11.9955C8.27195 11.7318 7.96434 11.357 7.78269 10.9184C7.60104 10.4799 7.55351 9.99734 7.64612 9.53178C7.73872 9.06623 7.9673 8.63859 8.30294 8.30294C8.63859 7.9673 9.06623 7.73872 9.53178 7.64612C9.99734 7.55351 10.4799 7.60104 10.9184 7.78269C11.357 7.96434 11.7318 8.27195 11.9955 8.66663C12.2592 9.06131 12.4 9.52532 12.4 10C12.4 10.6365 12.1471 11.247 11.6971 11.6971C11.247 12.1471 10.6365 12.4 10 12.4ZM16.775 13.75C16.775 14.5523 16.4563 15.3217 15.889 15.889C15.3217 16.4563 14.5523 16.775 13.75 16.775H6.25C5.44772 16.775 4.6783 16.4563 4.111 15.889C3.5437 15.3217 3.225 14.5523 3.225 13.75V6.25C3.225 5.44772 3.5437 4.6783 4.111 4.111C4.6783 3.5437 5.44772 3.225 6.25 3.225H13.75C14.5523 3.225 15.3217 3.5437 15.889 4.111C16.4563 4.6783 16.775 5.44772 16.775 6.25V13.75ZM14.9251 6.5139C15.0392 6.34329 15.1 6.1427 15.1 5.9375C15.1 5.66234 14.9907 5.39845 14.7961 5.20388C14.6016 5.00931 14.3377 4.9 14.0625 4.9C13.8573 4.9 13.6567 4.96085 13.4861 5.07485C13.3155 5.18885 13.1825 5.35089 13.104 5.54047C13.0254 5.73004 13.0049 5.93865 13.0449 6.13991C13.085 6.34116 13.1838 6.52603 13.3289 6.67112C13.474 6.81622 13.6588 6.91503 13.8601 6.95506C14.0613 6.9951 14.27 6.97455 14.4595 6.89603C14.6491 6.8175 14.8111 6.68452 14.9251 6.5139Z" fill="#475569" stroke="#475569" stroke-width="0.2"/>
</svg>
