<svg width="20" height="20" viewBox="0 0 20 20" fill="none" xmlns="http://www.w3.org/2000/svg">
<path d="M13.3307 6.66797C14.6568 6.66797 15.9286 7.19475 16.8663 8.13243C17.8039 9.07012 18.3307 10.3419 18.3307 11.668V17.5013H14.9974V11.668C14.9974 11.2259 14.8218 10.802 14.5092 10.4895C14.1967 10.1769 13.7728 10.0013 13.3307 10.0013C12.8887 10.0013 12.4648 10.1769 12.1522 10.4895C11.8397 10.802 11.6641 11.2259 11.6641 11.668V17.5013H8.33073V11.668C8.33073 10.3419 8.85751 9.07012 9.7952 8.13243C10.7329 7.19475 12.0046 6.66797 13.3307 6.66797ZM1.66406 7.5013H4.9974V17.5013H1.66406V7.5013Z" stroke="#475569" stroke-width="1.5" stroke-linecap="round" stroke-linejoin="round"/>
<path d="M3.33073 5.0013C4.2512 5.0013 4.9974 4.25511 4.9974 3.33464C4.9974 2.41416 4.2512 1.66797 3.33073 1.66797C2.41025 1.66797 1.66406 2.41416 1.66406 3.33464C1.66406 4.25511 2.41025 5.0013 3.33073 5.0013Z" stroke="#475569" stroke-width="1.5" stroke-linecap="round" stroke-linejoin="round"/>
</svg>
