<svg width="17" height="18" viewBox="0 0 17 18" fill="none" xmlns="http://www.w3.org/2000/svg">
<path d="M11.4088 2.67054C14.0987 2.67054 16.2872 4.86255 16.2872 7.55688C16.2872 10.2512 14.0987 12.4432 11.4088 12.4432C8.71883 12.4432 6.53038 10.2512 6.53038 7.55688C6.53038 4.86255 8.71883 2.67054 11.4088 2.67054ZM11.4088 2.53906C8.64141 2.53906 6.39844 4.78568 6.39844 7.55755C6.39844 10.3294 8.64141 12.576 11.4088 12.576C14.1761 12.576 16.4191 10.3294 16.4191 7.55755C16.4191 4.78568 14.1761 2.53906 11.4088 2.53906Z" fill="#F5B378"/>
<path d="M6.06763 1.72816C7.83737 2.93845 9.0632 5.74335 7.85487 7.5153C6.64655 9.28791 3.46115 9.35669 1.69208 8.1464C-0.0776631 6.93611 -0.532047 4.51823 0.676278 2.74561C1.8846 0.972992 4.29856 0.517869 6.0683 1.72816H6.06763Z" fill="#036280"/>
<path d="M6.96927 14.3107C6.54518 11.886 7.86256 8.63139 10.2839 8.20661C12.7046 7.78183 15.3118 10.3467 15.7359 12.7713C16.1599 15.1959 14.5417 17.5066 12.121 17.9314C9.70029 18.3562 7.39337 16.7353 6.96927 14.3107Z" fill="#D8C1A5"/>
<path d="M7.41889 13.5155C7.34349 13.5128 7.2856 13.4494 7.2883 13.3739C7.29099 13.2984 7.35427 13.2397 7.42966 13.2431C7.50505 13.2458 7.56294 13.3092 7.56025 13.3847C7.55756 13.4582 7.49698 13.5155 7.42427 13.5155C7.42427 13.5155 7.42091 13.5155 7.41889 13.5155ZM7.90626 13.3705C7.89751 13.2957 7.95069 13.2276 8.02541 13.2188C8.10013 13.21 8.16812 13.2633 8.17687 13.3382C8.18562 13.413 8.13244 13.4811 8.05772 13.4899C8.05233 13.4905 8.04628 13.4912 8.04156 13.4912C7.97357 13.4912 7.91501 13.4406 7.90626 13.3712V13.3705ZM6.7841 13.4393C6.71072 13.4245 6.66293 13.3523 6.67774 13.2788C6.69255 13.2053 6.76458 13.1575 6.83795 13.1723C6.91132 13.1871 6.95912 13.2593 6.94431 13.3328C6.93085 13.3975 6.8743 13.442 6.81102 13.442C6.80227 13.442 6.79285 13.4413 6.7841 13.4393ZM8.51547 13.2694C8.4946 13.1972 8.53634 13.121 8.60836 13.1008C8.68039 13.0799 8.75646 13.1217 8.77733 13.1939C8.7982 13.266 8.75646 13.3422 8.68443 13.3624C8.67164 13.3658 8.65885 13.3678 8.64673 13.3678C8.5875 13.3678 8.53297 13.3287 8.51614 13.2694H8.51547ZM6.1695 13.2613C6.09882 13.2343 6.06382 13.1561 6.09074 13.0853C6.11767 13.0145 6.19575 12.9795 6.26644 13.0064C6.33644 13.0334 6.37212 13.1116 6.3452 13.1824C6.32433 13.237 6.27317 13.2701 6.21797 13.2701C6.20181 13.2701 6.18566 13.2674 6.1695 13.2613ZM9.10045 13.0705C9.06813 13.0024 9.09708 12.9208 9.16507 12.8884C9.23306 12.8561 9.31451 12.8851 9.34615 12.9532C9.37846 13.0213 9.34952 13.1028 9.28153 13.1345C9.26268 13.1433 9.24248 13.148 9.22296 13.148C9.1718 13.148 9.12333 13.119 9.09977 13.0705H9.10045ZM5.59193 12.9862C5.52663 12.9484 5.50442 12.8648 5.54211 12.8001C5.57981 12.7347 5.66328 12.7124 5.72791 12.7502C5.7932 12.788 5.81542 12.8716 5.77772 12.9363C5.75214 12.9801 5.70704 13.0044 5.65992 13.0044C5.63703 13.0044 5.61347 12.9983 5.59193 12.9862ZM9.64571 12.7799C9.60262 12.7178 9.61811 12.6329 9.68004 12.5904C9.74197 12.5473 9.82679 12.5634 9.8692 12.6248C9.91228 12.6868 9.8968 12.7718 9.83486 12.8143C9.8113 12.8304 9.78438 12.8385 9.75745 12.8385C9.71437 12.8385 9.67196 12.8183 9.64503 12.7799H9.64571ZM5.06552 12.6221C5.00762 12.5742 4.99887 12.4886 5.04599 12.4306C5.09379 12.3719 5.17928 12.3639 5.23785 12.4111C5.29641 12.4589 5.30449 12.5446 5.25737 12.6025C5.23044 12.6356 5.1914 12.6524 5.15168 12.6524C5.12139 12.6524 5.0911 12.6423 5.06552 12.6214V12.6221ZM10.1371 12.4057C10.0853 12.351 10.0866 12.2647 10.1412 12.2128C10.1957 12.1609 10.2812 12.1623 10.3337 12.2169C10.3855 12.2715 10.3842 12.3571 10.3296 12.4097C10.3034 12.4353 10.2691 12.4475 10.2354 12.4475C10.1997 12.4475 10.164 12.4333 10.1371 12.4057ZM4.6044 12.1791C4.55459 12.1231 4.55997 12.0368 4.61584 11.9869C4.67172 11.9371 4.75788 11.9418 4.80837 11.9984C4.85818 12.0544 4.8528 12.1407 4.79693 12.1906C4.77135 12.2135 4.73903 12.225 4.70672 12.225C4.66902 12.225 4.632 12.2095 4.60507 12.1791H4.6044ZM10.5632 11.9573C10.5033 11.9121 10.4912 11.8265 10.5363 11.7665C10.5814 11.7065 10.6669 11.6943 10.7268 11.7395C10.7867 11.7847 10.7988 11.8703 10.7537 11.9303C10.7268 11.966 10.6864 11.9849 10.6447 11.9849C10.6164 11.9849 10.5875 11.9762 10.5626 11.9573H10.5632ZM4.22003 11.668C4.17964 11.6046 4.19848 11.5204 4.26176 11.4799C4.32504 11.4395 4.40918 11.4583 4.44957 11.5217C4.48996 11.5851 4.47112 11.6694 4.40784 11.7098C4.38495 11.724 4.36004 11.7307 4.33514 11.7307C4.29003 11.7307 4.24628 11.7085 4.22003 11.6674V11.668ZM10.9126 11.4469C10.846 11.4118 10.8204 11.3296 10.8554 11.2628C10.8904 11.196 10.9725 11.1704 11.0391 11.2055C11.1058 11.2405 11.1314 11.3228 11.0964 11.3896C11.0721 11.4361 11.025 11.4624 10.9759 11.4624C10.9543 11.4624 10.9328 11.4577 10.9126 11.4469ZM3.92249 11.1017C3.89287 11.0322 3.92518 10.952 3.99452 10.923C4.06385 10.8933 4.14396 10.9257 4.1729 10.9951C4.20252 11.0646 4.17021 11.1448 4.10088 11.1738C4.08337 11.1812 4.0652 11.1846 4.0477 11.1846C3.99452 11.1846 3.9447 11.1536 3.92249 11.1017ZM11.1758 10.8866C11.1044 10.8623 11.0661 10.7854 11.0896 10.714C11.1132 10.6425 11.1906 10.6041 11.262 10.6276C11.3333 10.6512 11.3717 10.7288 11.3481 10.8003C11.3293 10.8576 11.2761 10.8933 11.2189 10.8933C11.2047 10.8933 11.1899 10.8913 11.1758 10.8866ZM3.72054 10.4941C3.70236 10.4213 3.74747 10.3472 3.82017 10.329C3.89287 10.3107 3.96692 10.3559 3.98509 10.4287C4.00327 10.5016 3.95817 10.5757 3.88546 10.5939C3.87469 10.5966 3.86392 10.598 3.85315 10.598C3.7919 10.598 3.73602 10.5562 3.72121 10.4941H3.72054ZM11.3454 10.2912C11.2714 10.2791 11.2209 10.2089 11.233 10.1348C11.2451 10.0606 11.3151 10.01 11.3892 10.0222C11.4632 10.0343 11.5137 10.1044 11.5016 10.1786C11.4908 10.2453 11.4329 10.2932 11.3677 10.2932C11.3602 10.2932 11.3528 10.2932 11.3454 10.2912ZM3.61822 9.86237C3.61216 9.78753 3.66803 9.72145 3.74275 9.71538C3.81748 9.70931 3.88344 9.76528 3.8895 9.84012C3.89556 9.91496 3.83969 9.98104 3.76497 9.98711C3.76093 9.98711 3.75756 9.98711 3.75353 9.98711C3.68352 9.98711 3.6236 9.93317 3.61822 9.86169V9.86237ZM11.2801 9.54007C11.2801 9.46456 11.3407 9.40387 11.4161 9.40387C11.4915 9.40387 11.5521 9.46523 11.5521 9.54007C11.5521 9.61559 11.4908 9.67627 11.4161 9.67627C11.3407 9.67627 11.2801 9.61492 11.2801 9.54007ZM3.74275 9.36881C3.66803 9.36275 3.61216 9.29734 3.61755 9.22183C3.6236 9.14698 3.6889 9.09102 3.76429 9.09641C3.83902 9.10248 3.89489 9.16789 3.8895 9.24273C3.88412 9.3142 3.82421 9.36881 3.7542 9.36881C3.75083 9.36881 3.74679 9.36881 3.74343 9.36881H3.74275ZM11.233 8.94538C11.2209 8.87121 11.2714 8.80109 11.3454 8.78895C11.4195 8.77682 11.4895 8.82739 11.5016 8.90223C11.5137 8.9764 11.4632 9.04652 11.3892 9.05866C11.3818 9.06 11.3744 9.06068 11.3677 9.06068C11.3024 9.06068 11.2445 9.01281 11.2337 8.94605L11.233 8.94538ZM3.81882 8.75457C3.74545 8.73636 3.70102 8.66287 3.71919 8.58937C3.73737 8.51588 3.81074 8.47138 3.88412 8.48958C3.95749 8.50779 4.00192 8.58128 3.98375 8.65478C3.96826 8.71681 3.91306 8.75861 3.85181 8.75861C3.84104 8.75861 3.83027 8.75726 3.81949 8.75457H3.81882ZM11.091 8.36619C11.0674 8.29472 11.1058 8.21786 11.1771 8.19358C11.2485 8.16999 11.3252 8.20842 11.3495 8.27989C11.373 8.35136 11.3347 8.4289 11.2633 8.4525C11.2492 8.45722 11.2344 8.45924 11.2202 8.45924C11.163 8.45924 11.1098 8.42283 11.091 8.36619ZM3.99317 8.16055C3.92383 8.13088 3.89152 8.05064 3.92114 7.98187C3.95076 7.91242 4.03087 7.88006 4.09953 7.90972C4.16887 7.93939 4.20118 8.01963 4.17156 8.0884C4.14934 8.14032 4.09886 8.17134 4.04635 8.17134C4.02885 8.17134 4.01067 8.16796 3.99317 8.16055ZM10.8581 7.81735C10.8231 7.7506 10.8486 7.66834 10.9153 7.63328C10.9819 7.59822 11.0641 7.62384 11.0991 7.69059C11.1341 7.75734 11.1085 7.8396 11.0418 7.87466C11.0216 7.88545 11.0001 7.89017 10.9786 7.89017C10.9294 7.89017 10.8823 7.86387 10.8581 7.81735ZM4.26109 7.60294C4.19781 7.56248 4.17829 7.4782 4.21868 7.41482C4.25907 7.35144 4.34321 7.33256 4.40649 7.37234C4.47044 7.4128 4.48929 7.49708 4.4489 7.56046C4.42332 7.60159 4.37889 7.62384 4.33379 7.62384C4.30888 7.62384 4.28398 7.6171 4.26109 7.60294ZM10.5397 7.31368C10.4946 7.25367 10.5067 7.16804 10.5666 7.12287C10.6265 7.07769 10.712 7.08983 10.7571 7.14984C10.8022 7.20985 10.7901 7.29548 10.7302 7.34065C10.7059 7.35886 10.677 7.3683 10.6487 7.3683C10.6077 7.3683 10.5666 7.34942 10.5397 7.31368ZM4.6145 7.09522C4.55795 7.04533 4.55324 6.95902 4.60305 6.90238C4.65287 6.84575 4.73903 6.84103 4.79491 6.89092C4.85145 6.94082 4.85684 7.02712 4.80702 7.08376C4.7801 7.1141 4.7424 7.12961 4.70538 7.12961C4.67306 7.12961 4.64142 7.11815 4.61517 7.09522H4.6145ZM10.1452 6.86732C10.0907 6.81541 10.0893 6.72843 10.1412 6.67449C10.193 6.62055 10.2792 6.61852 10.3337 6.67044C10.3882 6.72236 10.3896 6.80934 10.3377 6.86328C10.3108 6.89092 10.2751 6.90508 10.2394 6.90508C10.2058 6.90508 10.1714 6.89227 10.1452 6.86732ZM5.04465 6.65021C4.99685 6.59223 5.0056 6.50592 5.0635 6.45805C5.12139 6.41018 5.20755 6.41894 5.25535 6.47693C5.30314 6.53559 5.29439 6.62122 5.2365 6.66909C5.21092 6.68999 5.18063 6.70011 5.15033 6.70011C5.11129 6.70011 5.07157 6.68325 5.04465 6.65021ZM9.68408 6.48907C9.62215 6.44591 9.60666 6.36096 9.64975 6.2996C9.69283 6.23757 9.77765 6.22206 9.8389 6.26521C9.90083 6.30837 9.91632 6.39332 9.87323 6.45468C9.84698 6.49311 9.80457 6.51334 9.76082 6.51334C9.73389 6.51334 9.70696 6.50525 9.6834 6.48907H9.68408ZM5.53942 6.28005C5.50173 6.21464 5.52394 6.13171 5.58856 6.09395C5.65386 6.05619 5.73666 6.07844 5.77435 6.14317C5.81205 6.20858 5.78984 6.29151 5.72454 6.32927C5.703 6.34208 5.67944 6.34747 5.65655 6.34747C5.60943 6.34747 5.56366 6.3232 5.53875 6.27937L5.53942 6.28005ZM9.16911 6.1897C9.10112 6.15733 9.07217 6.07575 9.10448 6.00765C9.1368 5.93955 9.21825 5.91055 9.28624 5.94292C9.35423 5.97528 9.38317 6.05687 9.35019 6.12497C9.32663 6.17419 9.27816 6.20251 9.227 6.20251C9.20748 6.20251 9.18728 6.19846 9.16843 6.18902L9.16911 6.1897ZM6.08738 5.99416C6.06045 5.92404 6.09613 5.84515 6.16614 5.81818C6.23614 5.79121 6.3149 5.82695 6.34183 5.89707C6.36876 5.96719 6.33308 6.04608 6.26307 6.07305C6.24691 6.07912 6.23076 6.08182 6.2146 6.08182C6.1594 6.08182 6.10824 6.0481 6.08738 5.99416ZM8.6124 5.97798C8.54038 5.95708 8.49864 5.88156 8.51951 5.80874C8.54038 5.7366 8.61577 5.69479 8.68847 5.71569C8.7605 5.7366 8.80223 5.81279 8.78137 5.88493C8.76386 5.94427 8.70934 5.98337 8.65077 5.98337C8.63798 5.98337 8.62519 5.98135 8.61308 5.97798H8.6124ZM6.67437 5.80065C6.65956 5.72716 6.70668 5.65501 6.78073 5.6395C6.85411 5.62467 6.92613 5.67187 6.94162 5.74604C6.95643 5.8202 6.90931 5.89168 6.83526 5.90718C6.82583 5.90921 6.81708 5.90988 6.80766 5.90988C6.74438 5.90988 6.68784 5.86538 6.67437 5.80065ZM8.02945 5.85864C7.95472 5.84987 7.90155 5.78177 7.9103 5.70693C7.91905 5.63209 7.98704 5.57882 8.06176 5.58759C8.13648 5.59635 8.18966 5.66445 8.18023 5.73929C8.17216 5.80874 8.11292 5.85931 8.04493 5.85931C8.03954 5.85931 8.03416 5.85931 8.02877 5.85864H8.02945ZM7.28493 5.70423C7.28156 5.62871 7.34013 5.56534 7.41552 5.56264C7.41552 5.56264 7.41822 5.56264 7.42024 5.56264C7.42024 5.56264 7.42293 5.56264 7.42427 5.56264C7.49967 5.55927 7.56294 5.61793 7.56564 5.69344C7.569 5.76896 7.51044 5.83234 7.43504 5.83504C7.43504 5.83504 7.43235 5.83504 7.43168 5.83504C7.43168 5.83504 7.42899 5.83504 7.42764 5.83504C7.42764 5.83504 7.4236 5.83504 7.42158 5.83504C7.34888 5.83504 7.28897 5.77773 7.2856 5.70423H7.28493Z" fill="#EBDFD0"/>
<path d="M7.4138 12.9757C7.33437 12.9723 7.27311 12.9049 7.27648 12.826C7.27984 12.7464 7.34716 12.685 7.42592 12.6884C7.50535 12.6918 7.56661 12.7592 7.56324 12.8381C7.55988 12.915 7.4966 12.9757 7.41986 12.9757C7.41986 12.9757 7.41582 12.9757 7.4138 12.9757ZM7.90252 12.8212C7.89107 12.743 7.9456 12.6695 8.02369 12.6587C8.10177 12.6473 8.17515 12.7019 8.18659 12.7801C8.19803 12.8583 8.14351 12.9318 8.06542 12.9433C8.05802 12.944 8.05128 12.9446 8.04455 12.9446C7.97454 12.9446 7.91329 12.8934 7.90319 12.8219L7.90252 12.8212ZM6.76689 12.8853C6.69015 12.8671 6.64236 12.7896 6.66053 12.712C6.67871 12.6352 6.75612 12.5873 6.83354 12.6055C6.91028 12.6237 6.95807 12.7012 6.9399 12.7788C6.92441 12.8448 6.86517 12.8893 6.80055 12.8887C6.78978 12.8887 6.77834 12.8873 6.76689 12.8846V12.8853ZM8.51644 12.6992C8.49019 12.6244 8.5299 12.5421 8.60462 12.5165C8.67934 12.4902 8.76147 12.53 8.78705 12.6048C8.8133 12.6797 8.77359 12.7619 8.69887 12.7875C8.68338 12.7929 8.66723 12.7956 8.65175 12.7956C8.59251 12.7956 8.53731 12.7585 8.51644 12.6992ZM6.1496 12.6736C6.07758 12.6405 6.04526 12.5556 6.07825 12.4834C6.11123 12.4113 6.19605 12.3789 6.26808 12.412C6.34011 12.445 6.37175 12.53 6.33944 12.6021C6.3152 12.6554 6.26337 12.6864 6.20884 12.6864C6.18865 12.6864 6.16845 12.6823 6.1496 12.6736ZM9.09603 12.4625C9.05632 12.3938 9.0792 12.3061 9.14786 12.2663C9.21653 12.2266 9.30404 12.2495 9.34375 12.3183C9.38347 12.387 9.36058 12.4747 9.29192 12.5145C9.26903 12.5279 9.24413 12.534 9.21989 12.534C9.17075 12.534 9.12229 12.5084 9.09603 12.4625ZM5.58348 12.3486C5.51885 12.3027 5.50337 12.2131 5.54914 12.1483C5.59492 12.0836 5.68445 12.0681 5.74907 12.114C5.8137 12.1598 5.82918 12.2495 5.7834 12.3142C5.75513 12.354 5.71138 12.3749 5.66627 12.3749C5.63733 12.3749 5.60838 12.3661 5.58348 12.3486ZM9.62042 12.12C9.56859 12.06 9.57465 11.9697 9.63456 11.9171C9.69447 11.8652 9.78468 11.8712 9.83718 11.9312C9.88902 11.9912 9.88296 12.0816 9.82305 12.1342C9.79612 12.1578 9.76246 12.1692 9.7288 12.1692C9.68909 12.1692 9.64937 12.1524 9.62042 12.12ZM5.08938 11.9225C5.03418 11.8652 5.0362 11.7741 5.09341 11.7195C5.15063 11.6649 5.24151 11.6662 5.29604 11.7236C5.35123 11.7809 5.34922 11.8719 5.292 11.9265C5.2644 11.9535 5.22805 11.9663 5.19237 11.9663C5.15467 11.9663 5.11698 11.9515 5.0887 11.9218L5.08938 11.9225ZM10.0708 11.6845C10.0082 11.6352 9.99739 11.5456 10.0465 11.4828C10.0957 11.4201 10.1852 11.4094 10.2478 11.4586C10.3104 11.5078 10.3212 11.5975 10.272 11.6602C10.2438 11.6966 10.2014 11.7155 10.159 11.7155C10.128 11.7155 10.097 11.7054 10.0708 11.6851V11.6845ZM4.68413 11.4107C4.64105 11.344 4.6599 11.2549 4.72654 11.2118C4.79318 11.1686 4.88204 11.1875 4.92512 11.2543C4.96821 11.321 4.94936 11.41 4.88271 11.4532C4.85848 11.4687 4.83155 11.4761 4.80463 11.4761C4.75751 11.4761 4.71173 11.4532 4.68413 11.4107ZM10.4309 11.1713C10.3602 11.1349 10.3326 11.0486 10.369 10.9778C10.4053 10.907 10.4915 10.8794 10.5622 10.9158C10.6329 10.9522 10.6605 11.0385 10.6241 11.1093C10.5985 11.1585 10.5487 11.1875 10.4962 11.1875C10.474 11.1875 10.4518 11.1828 10.4309 11.1713ZM4.38256 10.8308C4.35294 10.7573 4.38861 10.6737 4.46199 10.6441C4.53536 10.6144 4.61884 10.6501 4.64845 10.7236C4.67807 10.7971 4.6424 10.8807 4.56902 10.9104C4.55152 10.9178 4.53334 10.9212 4.51517 10.9212C4.45862 10.9212 4.40477 10.8875 4.38188 10.8315L4.38256 10.8308ZM10.6874 10.5996C10.6113 10.5773 10.5676 10.4978 10.5898 10.4216C10.612 10.3454 10.6914 10.3016 10.7675 10.3238C10.8436 10.3461 10.8873 10.4256 10.8651 10.5018C10.8469 10.5645 10.7897 10.6056 10.7278 10.6056C10.7143 10.6056 10.7008 10.6036 10.6874 10.5996ZM4.19676 10.2038C4.18128 10.1262 4.23244 10.0507 4.30985 10.0352C4.38727 10.0197 4.46266 10.071 4.47814 10.1485C4.49363 10.226 4.44247 10.3016 4.36505 10.3171C4.35563 10.3191 4.34621 10.3198 4.33745 10.3198C4.27014 10.3198 4.21023 10.2719 4.19676 10.2038ZM10.8308 9.98937C10.752 9.98195 10.6941 9.91251 10.7008 9.83294C10.7083 9.75406 10.7776 9.6954 10.857 9.70281C10.9358 9.71023 10.9937 9.77968 10.9869 9.85924C10.9802 9.93341 10.9176 9.99005 10.8442 9.99005C10.8402 9.99005 10.8355 9.99005 10.8308 9.99005V9.98937ZM4.13281 9.5538C4.13281 9.47424 4.19676 9.40951 4.27552 9.40951C4.35496 9.40951 4.41891 9.47289 4.41958 9.55245C4.41958 9.63202 4.35563 9.69607 4.27687 9.69674C4.19811 9.69674 4.13349 9.63269 4.13349 9.5538H4.13281ZM10.6995 9.23353C10.6921 9.15464 10.7493 9.08452 10.8281 9.07643C10.9068 9.06901 10.9768 9.12632 10.9849 9.20521C10.9923 9.2841 10.9351 9.35422 10.8563 9.36231C10.8516 9.36231 10.8469 9.36299 10.8422 9.36299C10.7695 9.36299 10.7069 9.3077 10.6995 9.23286V9.23353ZM4.30649 9.07036C4.2284 9.05553 4.17724 8.98068 4.19205 8.90247C4.20686 8.82426 4.28158 8.77301 4.35967 8.78785C4.43776 8.80268 4.48892 8.87752 4.47411 8.95574C4.46132 9.02451 4.40073 9.07306 4.33342 9.07306C4.32466 9.07306 4.31591 9.07238 4.30649 9.07036ZM10.5851 8.64558C10.5629 8.56939 10.6059 8.48915 10.682 8.4669C10.7581 8.44465 10.8375 8.4878 10.8604 8.56399C10.8826 8.64019 10.8395 8.71975 10.7635 8.74267C10.75 8.74672 10.7365 8.74874 10.7231 8.74874C10.6611 8.74874 10.6039 8.70829 10.5857 8.64558H10.5851ZM4.45391 8.46083C4.38054 8.43184 4.34419 8.34823 4.37313 8.27406C4.40208 8.20057 4.48555 8.16416 4.5596 8.19383C4.63297 8.22282 4.66932 8.30643 4.6397 8.3806C4.61749 8.43723 4.56364 8.47162 4.50642 8.47162C4.48892 8.47162 4.47074 8.46825 4.45391 8.46151V8.46083ZM10.3616 8.08999C10.3252 8.01987 10.3522 7.93289 10.4228 7.89648C10.4935 7.86007 10.5797 7.88704 10.616 7.95784C10.6524 8.02863 10.6255 8.11494 10.5548 8.15135C10.5339 8.16214 10.511 8.16753 10.4888 8.16753C10.437 8.16753 10.3872 8.13921 10.3616 8.08999ZM4.71442 7.89109C4.64778 7.84861 4.62826 7.75961 4.67067 7.69286C4.71308 7.6261 4.80194 7.60655 4.86858 7.64903C4.93522 7.69151 4.95474 7.78051 4.91233 7.84726C4.88473 7.89041 4.83896 7.91401 4.79116 7.91401C4.76491 7.91401 4.73798 7.9066 4.71442 7.89109ZM10.0364 7.587C9.9873 7.52497 9.99807 7.43462 10.06 7.3854C10.1219 7.33617 10.2121 7.34696 10.2613 7.40899C10.3104 7.47103 10.2996 7.56138 10.2377 7.6106C10.2115 7.6315 10.1798 7.64161 10.1489 7.64161C10.1064 7.64161 10.0647 7.62273 10.0364 7.587ZM5.07793 7.38C5.02071 7.32539 5.01802 7.23436 5.07255 7.17705C5.12707 7.11974 5.21795 7.11704 5.27517 7.17166C5.33239 7.22627 5.33508 7.3173 5.28055 7.37461C5.25228 7.40427 5.21458 7.41978 5.17621 7.41978C5.14121 7.41978 5.10553 7.40697 5.07793 7.38067V7.38ZM9.62244 7.15412C9.56253 7.10221 9.5558 7.01186 9.60763 6.95117C9.65947 6.89117 9.74967 6.88442 9.80958 6.93634C9.86949 6.98826 9.87623 7.07861 9.82439 7.13862C9.79612 7.17166 9.75573 7.18851 9.71601 7.18851C9.68303 7.18851 9.64937 7.17705 9.62244 7.15345V7.15412ZM5.53097 6.94713C5.48452 6.8824 5.49933 6.79272 5.56395 6.7462C5.6279 6.69968 5.71811 6.71451 5.76388 6.77924C5.81033 6.84397 5.79552 6.93364 5.7309 6.97949C5.70532 6.9977 5.67637 7.00646 5.64743 7.00646C5.603 7.00646 5.55924 6.98556 5.53097 6.94645V6.94713ZM9.1344 6.80688C9.06574 6.7671 9.04218 6.67945 9.0819 6.61067C9.12161 6.5419 9.20912 6.5183 9.27779 6.55808C9.34645 6.59786 9.37001 6.68552 9.33029 6.75429C9.30404 6.80082 9.25557 6.82644 9.20576 6.82644C9.18152 6.82644 9.15662 6.82037 9.1344 6.80756V6.80688ZM6.05738 6.6073C6.0244 6.53516 6.05536 6.44953 6.12739 6.41649C6.19942 6.38345 6.28424 6.41447 6.31789 6.48661C6.35088 6.55876 6.31991 6.64439 6.24789 6.67743C6.22836 6.68619 6.20817 6.69091 6.18797 6.69091C6.13345 6.69091 6.08162 6.6599 6.05738 6.6073ZM8.58981 6.55876C8.51509 6.53314 8.4747 6.45155 8.50096 6.37603C8.52654 6.30119 8.60799 6.26074 8.68338 6.28703C8.7581 6.31265 8.79849 6.39424 8.77224 6.46976C8.75205 6.52909 8.69617 6.56685 8.63694 6.56685C8.62145 6.56685 8.60597 6.56415 8.59049 6.55876H8.58981ZM6.63832 6.37469C6.61947 6.29782 6.66659 6.21961 6.74333 6.20073C6.82007 6.18185 6.89816 6.22905 6.91701 6.30591C6.93586 6.38278 6.88874 6.46099 6.81199 6.47987C6.80055 6.48257 6.78911 6.48392 6.77766 6.48392C6.71304 6.48392 6.65448 6.44009 6.63832 6.37469ZM8.0082 6.41919C7.93012 6.40772 7.87492 6.33558 7.88636 6.25669C7.89713 6.17848 7.96983 6.12319 8.04859 6.13465C8.12668 6.14544 8.18188 6.21826 8.17044 6.29715C8.16034 6.36929 8.09908 6.42054 8.0284 6.42054C8.02167 6.42054 8.01493 6.42053 8.0082 6.41919ZM7.25359 6.25669C7.24955 6.17713 7.31013 6.1097 7.38957 6.10566C7.38957 6.10566 7.39159 6.10566 7.39293 6.10566C7.39293 6.10566 7.39563 6.10566 7.39697 6.10566C7.47573 6.10161 7.54305 6.16297 7.54709 6.24186C7.55113 6.32142 7.48987 6.38885 7.41111 6.39222C7.41111 6.39222 7.40909 6.39222 7.40774 6.39222C7.40774 6.39222 7.40572 6.39222 7.40438 6.39222C7.40438 6.39222 7.39967 6.39222 7.39697 6.39222C7.32091 6.39222 7.25763 6.33288 7.25359 6.25602V6.25669Z" fill="#EBDFD0"/>
<path d="M7.43242 12.4347C7.34963 12.4306 7.28568 12.3598 7.28971 12.2762C7.29375 12.1926 7.36443 12.1286 7.44791 12.1333C7.53138 12.1373 7.59533 12.2081 7.59062 12.2917C7.58658 12.3727 7.51994 12.4354 7.4405 12.4354C7.4405 12.4354 7.43512 12.4354 7.4331 12.4354L7.43242 12.4347ZM7.92787 12.2695C7.91306 12.1872 7.96759 12.109 8.04904 12.0942C8.13117 12.0794 8.20925 12.1333 8.22406 12.2156C8.23887 12.2978 8.18435 12.376 8.10289 12.3909C8.09347 12.3922 8.08472 12.3936 8.07597 12.3936C8.00461 12.3936 7.94133 12.3423 7.92787 12.2695ZM6.76936 12.3228C6.68925 12.2992 6.64348 12.2156 6.66704 12.1353C6.6906 12.0551 6.77407 12.0092 6.85418 12.0328C6.93428 12.0564 6.98006 12.14 6.9565 12.2203C6.93765 12.2864 6.87707 12.3288 6.81177 12.3288C6.79763 12.3288 6.7835 12.3268 6.76936 12.3228ZM8.54718 12.1171C8.51352 12.0409 8.54853 11.9519 8.62459 11.9182C8.70066 11.8845 8.78952 11.9196 8.82318 11.9957C8.85683 12.0719 8.82183 12.1609 8.74576 12.1947C8.72624 12.2034 8.70537 12.2075 8.68518 12.2075C8.62729 12.2075 8.57209 12.1737 8.54718 12.1171ZM6.15073 12.0598C6.0787 12.0187 6.05312 11.9263 6.09418 11.8542C6.13524 11.7813 6.22746 11.7564 6.29949 11.7975C6.37219 11.8386 6.3971 11.931 6.35604 12.0032C6.32844 12.0517 6.27728 12.0794 6.22477 12.0794C6.19919 12.0794 6.17429 12.0733 6.15073 12.0598ZM9.11465 11.8245C9.06417 11.7577 9.07763 11.6633 9.14427 11.6128C9.21092 11.5622 9.30516 11.5757 9.35565 11.6424C9.40613 11.7092 9.39267 11.8036 9.32603 11.8542C9.2991 11.8744 9.26679 11.8845 9.23515 11.8845C9.18938 11.8845 9.14427 11.8636 9.11465 11.8245ZM5.6095 11.6613C5.54825 11.6047 5.54488 11.5089 5.6021 11.4483C5.65864 11.3869 5.75423 11.3835 5.81482 11.4408C5.87607 11.4975 5.87944 11.5932 5.82222 11.6539C5.7926 11.6856 5.75221 11.7018 5.71182 11.7018C5.6748 11.7018 5.63845 11.6883 5.6095 11.6613ZM9.59933 11.4085C9.53538 11.3552 9.52663 11.2601 9.57914 11.1961C9.63232 11.132 9.72723 11.1233 9.79118 11.1765C9.85513 11.2298 9.86456 11.3249 9.81138 11.3889C9.78176 11.4247 9.73868 11.4435 9.69559 11.4435C9.66194 11.4435 9.6276 11.4321 9.59933 11.4085ZM5.17397 11.1489C5.12752 11.0794 5.14637 10.9857 5.2157 10.9399C5.28504 10.8933 5.37861 10.9122 5.42506 10.9817C5.47151 11.0511 5.45266 11.1448 5.38332 11.1914C5.35774 11.2089 5.3288 11.217 5.29985 11.217C5.25138 11.217 5.20359 11.1934 5.17464 11.1502L5.17397 11.1489ZM9.97563 10.8927C9.90091 10.8556 9.87062 10.7652 9.90764 10.6904C9.94466 10.6155 10.0349 10.5852 10.1096 10.6223C10.1843 10.6594 10.2146 10.7497 10.1776 10.8246C10.1513 10.8778 10.0981 10.9082 10.0423 10.9082C10.0201 10.9082 9.99717 10.9035 9.97563 10.8927ZM4.86768 10.5495C4.83873 10.4713 4.87845 10.3843 4.95654 10.3553C5.03462 10.3263 5.12146 10.3661 5.15041 10.4443C5.17935 10.5225 5.13964 10.6095 5.06155 10.6385C5.04405 10.6452 5.02655 10.6479 5.00904 10.6479C4.94779 10.6479 4.89057 10.6101 4.86768 10.5495ZM10.2234 10.3034C10.1426 10.2845 10.0914 10.2036 10.1103 10.1227C10.1291 10.0418 10.2099 9.99051 10.2907 10.0094C10.3714 10.0283 10.4226 10.1092 10.4038 10.1908C10.3876 10.2609 10.3257 10.3081 10.257 10.3081C10.2456 10.3081 10.2341 10.3067 10.2234 10.304V10.3034ZM4.70881 9.89544C4.69872 9.81251 4.75728 9.73766 4.84008 9.72755C4.92288 9.71743 4.9976 9.7761 5.0077 9.85903C5.01779 9.94196 4.95923 10.0168 4.87643 10.0269C4.87037 10.0276 4.86364 10.0283 4.85758 10.0283C4.78286 10.0283 4.71756 9.9723 4.70814 9.89544H4.70881ZM10.1756 9.52325C10.1756 9.43964 10.2422 9.37154 10.325 9.37087C10.4085 9.37087 10.4765 9.43762 10.4771 9.52055C10.4771 9.60416 10.4105 9.67159 10.3277 9.67226H10.3263C10.2435 9.67226 10.1762 9.60551 10.1756 9.52258V9.52325ZM4.83739 9.38907C4.75459 9.38031 4.69468 9.30547 4.7041 9.22253C4.71285 9.1396 4.78757 9.07959 4.87037 9.08903C4.95317 9.09779 5.01308 9.17264 5.00366 9.25557C4.99558 9.33311 4.93028 9.39042 4.85422 9.39042C4.84883 9.39042 4.84345 9.39042 4.83806 9.38975L4.83739 9.38907ZM10.1029 8.92451C10.0833 8.8436 10.1331 8.76202 10.2139 8.74246C10.2947 8.72291 10.3762 8.7728 10.3957 8.85371C10.4152 8.93462 10.3654 9.01621 10.2846 9.03576C10.2725 9.03846 10.2604 9.03981 10.2489 9.03981C10.1809 9.03981 10.119 8.99328 10.1029 8.92451ZM4.94577 8.75932C4.86768 8.731 4.82662 8.64469 4.85422 8.56648C4.88182 8.48827 4.96798 8.44714 5.04674 8.47478C5.12483 8.50243 5.16589 8.58873 5.13829 8.66762C5.11608 8.72965 5.05818 8.76808 4.99625 8.76808C4.97942 8.76808 4.96259 8.76539 4.94577 8.75932ZM9.89418 8.35948C9.85648 8.28532 9.88542 8.19429 9.96015 8.15653C10.0342 8.11877 10.1251 8.14777 10.1628 8.22261C10.2005 8.29678 10.1715 8.3878 10.0968 8.42556C10.0746 8.43702 10.0517 8.44174 10.0281 8.44174C9.97361 8.44174 9.92043 8.4114 9.8935 8.35948H9.89418ZM5.19686 8.17204C5.12685 8.12687 5.10732 8.03314 5.15243 7.96302C5.19753 7.8929 5.2911 7.87335 5.36111 7.91852C5.43111 7.9637 5.45064 8.05742 5.40553 8.12754C5.37659 8.17204 5.32812 8.19631 5.27898 8.19631C5.25071 8.19631 5.22244 8.18822 5.19686 8.17204ZM9.56029 7.85784C9.50643 7.79446 9.51384 7.69871 9.57779 7.64477C9.64107 7.59083 9.73666 7.59825 9.79051 7.66163C9.84436 7.72501 9.83696 7.82075 9.77368 7.87469C9.74541 7.89897 9.7104 7.91043 9.67607 7.91043C9.63366 7.91043 9.59125 7.89222 9.56096 7.85716L9.56029 7.85784ZM5.57652 7.65758C5.51863 7.59757 5.52065 7.50183 5.58123 7.44384C5.64114 7.38653 5.73673 7.38856 5.79462 7.44856C5.85184 7.50857 5.84982 7.60432 5.78991 7.66163C5.76096 7.68995 5.72327 7.70343 5.68557 7.70343C5.64585 7.70343 5.60614 7.68793 5.57652 7.65691V7.65758ZM9.12004 7.44587C9.05272 7.39665 9.03859 7.30225 9.08773 7.23483C9.13687 7.1674 9.23111 7.15324 9.29843 7.20246C9.36574 7.25168 9.37988 7.34608 9.33074 7.4135C9.30112 7.45396 9.25535 7.47486 9.2089 7.47486C9.17793 7.47486 9.14629 7.46542 9.12004 7.44519V7.44587ZM6.06321 7.24427C6.0208 7.17212 6.04504 7.07975 6.11639 7.03794C6.18842 6.99546 6.28065 7.01974 6.32238 7.09121C6.36479 7.16335 6.34056 7.25573 6.2692 7.29753C6.24497 7.31169 6.21871 7.31843 6.19313 7.31843C6.1413 7.31843 6.09081 7.29214 6.06321 7.24427ZM8.59699 7.1465C8.52025 7.11413 8.48458 7.02513 8.51756 6.94827C8.54987 6.8714 8.63873 6.83567 8.71547 6.8687C8.79221 6.90107 8.82789 6.99007 8.7949 7.06694C8.77067 7.12425 8.7148 7.15863 8.65623 7.15863C8.63671 7.15863 8.61652 7.15459 8.59699 7.1465ZM6.63204 6.95433C6.6078 6.87477 6.65223 6.79049 6.73166 6.76554C6.8111 6.74127 6.89524 6.78577 6.92015 6.86533C6.94438 6.94489 6.89995 7.02918 6.82052 7.05412C6.80571 7.05884 6.7909 7.06087 6.77609 7.06087C6.71147 7.06087 6.65223 7.01906 6.63204 6.95433ZM8.01942 6.97659C7.9373 6.96243 7.8821 6.88489 7.89623 6.80263C7.91037 6.72037 7.98778 6.66508 8.06991 6.67924C8.15203 6.6934 8.20723 6.77094 8.1931 6.8532C8.18098 6.92669 8.11703 6.97928 8.045 6.97928C8.03692 6.97928 8.02817 6.97861 8.01942 6.97726V6.97659ZM7.25269 6.80532C7.2473 6.72239 7.30991 6.65025 7.39338 6.64485C7.39338 6.64485 7.3954 6.64485 7.39675 6.64485C7.39675 6.64485 7.39877 6.64485 7.39944 6.64485C7.48224 6.63946 7.55427 6.70284 7.55965 6.78577C7.56504 6.8687 7.50176 6.94085 7.41896 6.94624C7.41896 6.94624 7.41694 6.94624 7.41627 6.94624C7.41627 6.94624 7.41492 6.94624 7.41358 6.94624C7.41021 6.94624 7.40684 6.94624 7.40348 6.94624C7.32472 6.94624 7.25875 6.88489 7.25336 6.80532H7.25269Z" fill="#EBDFD0"/>
<path d="M7.42674 11.8957C7.3399 11.8903 7.27326 11.8155 7.27864 11.7278C7.28403 11.6409 7.35875 11.5741 7.44626 11.5795C7.5331 11.5849 7.59974 11.6597 7.59436 11.7474C7.58897 11.831 7.51963 11.8957 7.43684 11.8957C7.43684 11.8957 7.4301 11.8957 7.42674 11.8957ZM7.93565 11.7184C7.91545 11.6334 7.96796 11.5478 8.05278 11.5276C8.1376 11.5074 8.22309 11.56 8.24328 11.6449C8.26348 11.7299 8.21097 11.8155 8.12615 11.8357C8.11404 11.8384 8.10125 11.8404 8.08913 11.8404C8.01777 11.8404 7.95315 11.7912 7.93565 11.7191V11.7184ZM6.73944 11.7474C6.65799 11.7164 6.61693 11.6247 6.64789 11.5431C6.67886 11.4615 6.77041 11.4204 6.85186 11.4514C6.93331 11.4824 6.97437 11.5741 6.94341 11.6557C6.91917 11.7191 6.85926 11.7575 6.79531 11.7575C6.77646 11.7575 6.75762 11.7541 6.73944 11.7474ZM8.56102 11.5161C8.51659 11.4406 8.54149 11.3442 8.61622 11.299C8.69094 11.2545 8.78787 11.2795 8.83297 11.3543C8.8774 11.4298 8.85249 11.5262 8.77777 11.5714C8.75219 11.5862 8.72459 11.5937 8.69767 11.5937C8.64382 11.5937 8.59131 11.566 8.56169 11.5161H8.56102ZM6.12754 11.4022C6.05887 11.3482 6.04676 11.2491 6.09994 11.1803C6.15379 11.1116 6.25275 11.0988 6.32141 11.1527C6.39007 11.2066 6.40286 11.3058 6.34901 11.3745C6.31804 11.4143 6.27159 11.4352 6.22447 11.4352C6.19081 11.4352 6.15648 11.4244 6.12754 11.4015V11.4022ZM9.0982 11.1379C9.03358 11.0792 9.02886 10.9787 9.08743 10.9147C9.14599 10.85 9.24562 10.8452 9.31024 10.9039C9.37487 10.9626 9.37958 11.063 9.32102 11.1278C9.29005 11.1621 9.24697 11.1797 9.20389 11.1797C9.16619 11.1797 9.12782 11.1662 9.0982 11.1385V11.1379ZM5.64353 10.8924C5.59372 10.821 5.61122 10.7219 5.68258 10.672C5.75393 10.6221 5.85289 10.6389 5.9027 10.7111C5.95252 10.7825 5.93569 10.8817 5.86366 10.9315C5.83606 10.9511 5.80442 10.9599 5.77345 10.9599C5.72364 10.9599 5.6745 10.9363 5.64353 10.8924ZM9.50075 10.6173C9.42199 10.5803 9.38766 10.4859 9.42468 10.407C9.46171 10.3281 9.55595 10.2937 9.63471 10.3308C9.71347 10.3679 9.7478 10.4623 9.71078 10.5412C9.68385 10.5985 9.6273 10.6322 9.56739 10.6322C9.54518 10.6322 9.52229 10.6275 9.50075 10.6173ZM5.33119 10.262C5.30426 10.1784 5.35004 10.0894 5.43351 10.0631C5.51698 10.0361 5.60584 10.082 5.63209 10.1656C5.65834 10.2485 5.61257 10.3382 5.52977 10.3645C5.51361 10.3699 5.49746 10.3719 5.4813 10.3719C5.41466 10.3719 5.35273 10.3288 5.33119 10.262ZM9.73232 10.0017C9.64615 9.98961 9.58557 9.91005 9.59768 9.82307C9.6098 9.73677 9.68923 9.67608 9.77607 9.68822C9.86224 9.70036 9.92282 9.77992 9.9107 9.8669C9.89993 9.94579 9.83195 10.0031 9.75453 10.0031C9.74713 10.0031 9.73972 10.0031 9.73232 10.0017ZM5.21877 9.56753C5.21742 9.47987 5.28743 9.4084 5.37494 9.40706C5.46245 9.40571 5.53381 9.47583 5.53515 9.56348C5.5365 9.65114 5.46649 9.72261 5.37898 9.72396H5.37696C5.2908 9.72396 5.22012 9.65451 5.21877 9.56753ZM9.59095 9.21354C9.57682 9.12724 9.63605 9.04565 9.72155 9.03217C9.80771 9.01801 9.88849 9.07734 9.90263 9.16297C9.91676 9.24928 9.8582 9.33019 9.77203 9.34435C9.76328 9.3457 9.7552 9.34637 9.74645 9.34637C9.67039 9.34637 9.60307 9.29108 9.59028 9.21354H9.59095ZM5.42206 9.06656C5.33859 9.04161 5.2908 8.95396 5.3157 8.86967C5.34061 8.78607 5.42812 8.73819 5.51227 8.76314C5.59574 8.78809 5.64353 8.87574 5.6193 8.96002C5.59911 9.0288 5.53583 9.0733 5.46784 9.0733C5.45303 9.0733 5.43822 9.07128 5.42274 9.06656H5.42206ZM9.40651 8.63301C9.36746 8.5548 9.39978 8.45973 9.47786 8.42129C9.55595 8.38219 9.65086 8.41455 9.68923 8.49276C9.72828 8.57098 9.69597 8.66605 9.61788 8.70515C9.59567 8.71662 9.57143 8.72134 9.54787 8.72134C9.48931 8.72134 9.43343 8.68897 9.40651 8.63301ZM5.65767 8.45163C5.58497 8.40309 5.56545 8.30532 5.61391 8.2325C5.66238 8.15968 5.76066 8.14013 5.83337 8.18868C5.90607 8.23722 5.92559 8.33566 5.87712 8.40781C5.84683 8.45366 5.79634 8.4786 5.74518 8.4786C5.71489 8.4786 5.6846 8.46984 5.65767 8.45231V8.45163ZM9.05848 8.13339C8.99857 8.07001 9.00126 7.96954 9.06454 7.90953C9.12782 7.84952 9.22812 7.85222 9.28803 7.9156C9.34794 7.97898 9.34525 8.07945 9.28197 8.13945C9.25168 8.16845 9.21264 8.18261 9.17359 8.18261C9.13186 8.18261 9.09012 8.16642 9.05916 8.13339H9.05848ZM6.06291 7.93381C6.00771 7.86638 6.01781 7.76659 6.08513 7.7113C6.15244 7.65601 6.25207 7.66613 6.30727 7.73355C6.36247 7.80098 6.35305 7.90077 6.28506 7.95606C6.25544 7.98033 6.22043 7.99179 6.18476 7.99179C6.13898 7.99179 6.09388 7.97224 6.06224 7.93381H6.06291ZM8.57919 7.7585C8.50312 7.71535 8.4762 7.61893 8.51928 7.54274C8.56236 7.46655 8.65862 7.43958 8.73469 7.48273C8.81076 7.52588 8.83769 7.6223 8.7946 7.69849C8.76566 7.74973 8.7118 7.77873 8.65728 7.77873C8.63102 7.77873 8.6041 7.77198 8.57987 7.7585H8.57919ZM6.60212 7.55825C6.56913 7.47733 6.60817 7.38496 6.68895 7.35192C6.76973 7.31888 6.86196 7.35799 6.89494 7.4389C6.92793 7.51981 6.88888 7.61219 6.8081 7.64522C6.78858 7.65332 6.76839 7.65669 6.74886 7.65669C6.68626 7.65669 6.62702 7.6196 6.60212 7.55825ZM8.01037 7.54139C7.92555 7.52318 7.87103 7.4389 7.88987 7.35327C7.90872 7.26764 7.99287 7.2137 8.07769 7.23191C8.16318 7.25079 8.21703 7.33507 8.19818 7.42002C8.18203 7.49419 8.11673 7.54476 8.04403 7.54476C8.03258 7.54476 8.02181 7.54341 8.01037 7.54139ZM7.22816 7.35934C7.22075 7.27236 7.2847 7.1955 7.37221 7.18808C7.37221 7.18808 7.37356 7.18808 7.37491 7.18808C7.37491 7.18808 7.37625 7.18808 7.37692 7.18808C7.46376 7.18066 7.5405 7.24539 7.54791 7.33237C7.55531 7.41935 7.49069 7.49621 7.40385 7.50363C7.40385 7.50363 7.40251 7.50363 7.40183 7.50363C7.40183 7.50363 7.40049 7.50363 7.39914 7.50363C7.39443 7.50363 7.38972 7.50363 7.385 7.50363C7.30422 7.50363 7.23489 7.4416 7.22748 7.35934H7.22816Z" fill="#EBDFD0"/>
<path d="M7.60344 11.2074C7.59267 11.1171 7.65662 11.0341 7.74749 11.0234C7.83837 11.0126 7.9205 11.0773 7.93127 11.1677C7.94204 11.2587 7.87809 11.3409 7.78721 11.3517C7.78048 11.3524 7.77375 11.3531 7.76702 11.3531C7.68489 11.3531 7.61354 11.2917 7.60344 11.2074ZM7.15578 11.318C7.06693 11.2971 7.01173 11.2081 7.03192 11.1191C7.05279 11.0301 7.14165 10.9748 7.23051 10.9957C7.31936 11.0166 7.37456 11.1056 7.35369 11.1946C7.33619 11.2708 7.2682 11.3227 7.19281 11.3227C7.18002 11.3227 7.1679 11.3214 7.15511 11.318H7.15578ZM8.16957 11.0948C8.1285 11.0132 8.16082 10.9135 8.24227 10.8723C8.32372 10.8312 8.42335 10.8636 8.46441 10.9451C8.50615 11.0267 8.47316 11.1265 8.39171 11.1677C8.36748 11.1798 8.3419 11.1859 8.31699 11.1859C8.25708 11.1859 8.19851 11.1528 8.16957 11.0955V11.0948ZM6.57417 11.0692C6.49743 11.0193 6.47589 10.9168 6.52638 10.84C6.57619 10.7631 6.67851 10.7415 6.75525 10.7914C6.83199 10.8413 6.85354 10.9438 6.80305 11.0207C6.77141 11.0692 6.71823 11.0962 6.66438 11.0962C6.63341 11.0962 6.60177 11.0874 6.57417 11.0692ZM8.66367 10.7948C8.59702 10.7321 8.59366 10.6276 8.65559 10.5608C8.71819 10.4941 8.82253 10.4907 8.88918 10.5527C8.95582 10.6154 8.95919 10.7199 8.89725 10.7867C8.86494 10.8218 8.82051 10.8393 8.77676 10.8393C8.73637 10.8393 8.69598 10.8245 8.66367 10.7948ZM6.11238 10.637C6.05719 10.5642 6.072 10.4604 6.1447 10.4051C6.2174 10.3505 6.32107 10.3646 6.37626 10.4374C6.43079 10.5103 6.41665 10.6141 6.34395 10.6694C6.31433 10.6916 6.27933 10.7024 6.24432 10.7024C6.19384 10.7024 6.1447 10.6795 6.11238 10.6363V10.637ZM9.02583 10.3437C8.94168 10.308 8.90264 10.2102 8.93899 10.1266C8.97467 10.0423 9.07228 10.0039 9.15575 10.0396C9.23989 10.0754 9.27894 10.1731 9.24259 10.2567C9.21566 10.3194 9.15507 10.3572 9.09045 10.3572C9.06891 10.3572 9.0467 10.3525 9.02583 10.3437ZM5.82629 10.072C5.80004 9.98433 5.84918 9.89196 5.93669 9.86566C6.0242 9.83937 6.11642 9.88859 6.14268 9.97624C6.16893 10.0639 6.11979 10.1563 6.03228 10.1826C6.01612 10.1873 5.99997 10.19 5.98448 10.19C5.9138 10.19 5.84783 10.1441 5.82629 10.0727V10.072ZM9.21229 9.79621C9.12142 9.79149 9.05141 9.71328 9.05612 9.62226C9.06083 9.53123 9.13892 9.46111 9.2298 9.46583C9.32067 9.47055 9.39068 9.54876 9.38597 9.63979C9.38126 9.72812 9.30856 9.79621 9.22104 9.79621C9.22104 9.79621 9.21499 9.79621 9.21229 9.79621ZM5.9064 9.61821C5.81552 9.61349 5.74551 9.53595 5.75022 9.44425C5.75494 9.35323 5.83302 9.28311 5.9239 9.28783C6.01478 9.29255 6.08479 9.37076 6.08007 9.46178C6.07536 9.55011 6.00266 9.61889 5.91515 9.61889C5.91515 9.61889 5.90909 9.61889 5.9064 9.61889V9.61821ZM8.99419 9.1078C8.96794 9.02015 9.01708 8.92777 9.10459 8.90148C9.1921 8.87518 9.28432 8.9244 9.31058 9.01206C9.33683 9.09971 9.28769 9.19208 9.20018 9.21838C9.18402 9.2231 9.16786 9.22579 9.15238 9.22579C9.0817 9.22579 9.01573 9.17995 8.99419 9.1078ZM5.98045 9.04442C5.8963 9.00868 5.85726 8.91159 5.89361 8.82731C5.92928 8.74303 6.02622 8.70392 6.11037 8.73966C6.19451 8.77539 6.23355 8.87316 6.19788 8.95677C6.17095 9.01947 6.10969 9.05723 6.04574 9.05723C6.0242 9.05723 6.00199 9.05319 5.98112 9.04375L5.98045 9.04442ZM8.7606 8.64593C8.70608 8.57311 8.72021 8.46928 8.79359 8.41399C8.86696 8.35938 8.96996 8.37354 9.02515 8.44703C9.07968 8.51985 9.06555 8.62368 8.99217 8.67897C8.96255 8.70122 8.92755 8.71201 8.89322 8.71201C8.8434 8.71201 8.79359 8.68909 8.76128 8.64593H8.7606ZM6.24634 8.53064C6.1797 8.46861 6.17566 8.36342 6.23827 8.29667C6.30087 8.22992 6.40521 8.22587 6.47185 8.28858C6.5385 8.35128 6.54254 8.45579 6.47993 8.52255C6.44762 8.55761 6.40319 8.57514 6.35876 8.57514C6.31837 8.57514 6.27798 8.5603 6.24634 8.53064ZM8.38296 8.29128C8.30622 8.24138 8.28468 8.13889 8.33516 8.06203C8.38498 7.98584 8.4873 7.96426 8.56404 8.01416C8.64011 8.06405 8.66165 8.16654 8.61183 8.2434C8.5802 8.29195 8.52702 8.31825 8.47316 8.31825C8.4422 8.31825 8.41056 8.30948 8.38296 8.29128ZM6.67111 8.13822C6.62937 8.05663 6.66236 7.95684 6.74314 7.91572C6.82459 7.87391 6.92422 7.90695 6.96528 7.98786C7.00634 8.06945 6.97403 8.16924 6.89258 8.21037C6.86835 8.2225 6.84277 8.22857 6.81786 8.22857C6.75795 8.22857 6.69938 8.19553 6.67044 8.13822H6.67111ZM7.90771 8.08765C7.81885 8.06675 7.76365 7.97775 7.78452 7.88875C7.80539 7.79974 7.89424 7.74445 7.9831 7.76536C8.07196 7.78626 8.12716 7.87526 8.10629 7.96426C8.08879 8.04045 8.0208 8.09237 7.9454 8.09237C7.93261 8.09237 7.9205 8.09102 7.90771 8.08765ZM7.20425 7.91572C7.19348 7.82469 7.25743 7.74243 7.34831 7.73164H7.34966C7.34966 7.73164 7.35033 7.73164 7.351 7.73164C7.44188 7.72086 7.524 7.78558 7.53478 7.87593C7.54555 7.96628 7.4816 8.04922 7.39072 8.06001C7.39072 8.06001 7.3887 8.06001 7.38803 8.06001C7.38129 8.06068 7.37456 8.06135 7.36783 8.06135C7.28571 8.06135 7.21435 8 7.20358 7.91572H7.20425Z" fill="#EBDFD0"/>
<path d="M7.62095 10.6665C7.60278 10.5728 7.66404 10.4824 7.7576 10.4642C7.85117 10.446 7.94138 10.5074 7.95955 10.6011C7.97773 10.6948 7.91647 10.7851 7.8229 10.8033C7.81213 10.8054 7.80069 10.8067 7.78992 10.8067C7.70914 10.8067 7.63644 10.7494 7.62095 10.6665ZM7.15782 10.7555C7.06761 10.7245 7.02049 10.626 7.05146 10.5357C7.08242 10.4453 7.18071 10.3981 7.27091 10.4291C7.36111 10.4602 7.40823 10.5593 7.37727 10.6489C7.35236 10.7204 7.28572 10.7649 7.21436 10.7649C7.19552 10.7649 7.17667 10.7615 7.15782 10.7555ZM8.17968 10.4945C8.11707 10.4224 8.12515 10.3132 8.19718 10.2511C8.26921 10.1884 8.37826 10.1965 8.44019 10.2687C8.50279 10.3408 8.49472 10.45 8.42269 10.5127C8.3897 10.5411 8.34999 10.5552 8.3096 10.5552C8.26113 10.5552 8.21334 10.535 8.179 10.4959L8.17968 10.4945ZM6.6065 10.3813C6.5439 10.3091 6.55197 10.1999 6.624 10.1379C6.69603 10.0752 6.80508 10.0832 6.86701 10.1554C6.92962 10.2275 6.92154 10.3368 6.84951 10.3995C6.8172 10.4278 6.77681 10.4419 6.73642 10.4419C6.68795 10.4419 6.64016 10.4217 6.60583 10.3826L6.6065 10.3813ZM8.57752 10.0657C8.48731 10.034 8.44019 9.93558 8.47116 9.84591C8.5028 9.75556 8.60108 9.70836 8.69061 9.73937C8.78081 9.77106 8.82793 9.86951 8.79697 9.95918C8.77206 10.0307 8.70542 10.0752 8.63406 10.0752C8.61521 10.0752 8.59636 10.0718 8.57752 10.0657ZM6.31569 9.7805C6.29752 9.68678 6.35878 9.59643 6.45235 9.57823C6.54591 9.56002 6.63612 9.62138 6.65429 9.7151C6.67247 9.80882 6.61121 9.89917 6.51764 9.91738C6.50687 9.9194 6.49543 9.92075 6.48466 9.92075C6.40388 9.92075 6.33118 9.86344 6.31569 9.7805ZM8.50616 9.35842C8.48798 9.2647 8.54924 9.17435 8.64281 9.15614C8.73638 9.13794 8.82659 9.19929 8.84476 9.29302C8.86294 9.38674 8.80168 9.47709 8.70811 9.49529C8.69734 9.49732 8.68657 9.49866 8.6758 9.49866C8.59434 9.49866 8.52232 9.44135 8.50683 9.35842H8.50616ZM6.46917 9.33415C6.37897 9.30313 6.33185 9.20469 6.36281 9.11434C6.39378 9.02399 6.49206 8.97679 6.58227 9.00781C6.67247 9.03882 6.72026 9.13794 6.68862 9.22761C6.66372 9.29908 6.59707 9.34359 6.52572 9.34359C6.50687 9.34359 6.48802 9.34021 6.46917 9.33415ZM8.29344 8.91813C8.23084 8.84598 8.23892 8.73676 8.31094 8.67472C8.38297 8.61202 8.49202 8.62011 8.55396 8.69226C8.61656 8.7644 8.60848 8.87363 8.53645 8.93634C8.50414 8.96465 8.46375 8.97881 8.42336 8.97881C8.37489 8.97881 8.3271 8.95859 8.29277 8.91881L8.29344 8.91813ZM6.71892 8.80486C6.65631 8.73271 6.66439 8.62348 6.73575 8.56077C6.80777 8.49807 6.91683 8.50616 6.97943 8.57763C7.04203 8.64978 7.03396 8.75901 6.9626 8.82171C6.92962 8.85003 6.88923 8.86419 6.84951 8.86419C6.80104 8.86419 6.75325 8.84396 6.71892 8.80486ZM7.88955 8.64371C7.79934 8.61269 7.75222 8.51358 7.78319 8.4239C7.81482 8.33355 7.91311 8.28635 8.00264 8.31737C8.09284 8.34906 8.13996 8.4475 8.109 8.53718C8.08409 8.60865 8.01745 8.65315 7.94609 8.65315C7.92724 8.65315 7.90839 8.64978 7.88955 8.64371ZM7.19955 8.47177C7.18138 8.37873 7.24196 8.28838 7.33486 8.2695C7.33486 8.2695 7.33755 8.2695 7.3389 8.26882C7.43247 8.25062 7.52267 8.31197 7.54085 8.40637C7.55835 8.50009 7.49709 8.59044 7.40352 8.60865C7.40352 8.60865 7.40285 8.60865 7.40218 8.60865C7.39141 8.61067 7.37996 8.61202 7.36919 8.61202C7.28841 8.61202 7.21571 8.55471 7.20023 8.47177H7.19955Z" fill="#EBDFD0"/>
<path d="M7.63342 10.1526C7.59573 10.0603 7.64015 9.95576 7.73238 9.918C7.8246 9.88024 7.92894 9.92474 7.96664 10.0171C8.00433 10.1095 7.95991 10.214 7.86768 10.2518C7.84547 10.2605 7.82258 10.2652 7.80037 10.2652C7.72968 10.2652 7.66237 10.2228 7.6341 10.1526H7.63342ZM7.10499 10.1459C7.02623 10.0852 7.01209 9.97194 7.07335 9.89306C7.13461 9.81484 7.24703 9.80001 7.32579 9.86137C7.40387 9.92272 7.41868 10.0353 7.35743 10.1142C7.32175 10.1601 7.26924 10.1837 7.21539 10.1837C7.17702 10.1837 7.13798 10.1715 7.10566 10.1459H7.10499ZM8.13829 9.79664C8.04001 9.78248 7.97135 9.69213 7.98549 9.59301C7.99895 9.49457 8.08983 9.4258 8.18878 9.43996C8.28706 9.45411 8.35572 9.54447 8.34159 9.64358C8.3288 9.73393 8.25206 9.79866 8.16387 9.79866C8.15512 9.79866 8.14704 9.79866 8.13829 9.79664ZM6.96767 9.63414C6.86938 9.62066 6.80072 9.52963 6.81419 9.43119C6.82765 9.33275 6.91853 9.26397 7.01681 9.27746C7.11509 9.29094 7.18375 9.38197 7.17029 9.48041C7.15817 9.57076 7.08076 9.63549 6.99257 9.63549C6.98449 9.63549 6.97574 9.63549 6.96767 9.63347V9.63414ZM7.83066 9.21206C7.75257 9.1507 7.73844 9.0381 7.79902 8.95921C7.86028 8.881 7.97337 8.86684 8.05146 8.92752C8.12954 8.98888 8.14368 9.10215 8.08309 9.18037C8.04742 9.22622 7.99424 9.24982 7.94106 9.24982C7.90269 9.24982 7.86364 9.237 7.83066 9.21206ZM7.18779 9.05698C7.15009 8.96461 7.19452 8.86009 7.28607 8.82234C7.28607 8.82234 7.28742 8.82234 7.28809 8.82166C7.38031 8.78458 7.48465 8.82908 7.52235 8.92145C7.55937 9.01383 7.51495 9.11834 7.42272 9.15609L7.42003 9.15744C7.39849 9.16621 7.37627 9.17025 7.35406 9.17025C7.28338 9.17025 7.21606 9.12777 7.18779 9.05833V9.05698Z" fill="#EBDFD0"/>
<path d="M7.38281 9.54291C7.38281 9.43975 7.46628 9.35547 7.56995 9.35547C7.67294 9.35547 7.75709 9.43908 7.75709 9.54291C7.75709 9.64607 7.67362 9.73035 7.56995 9.73035C7.46696 9.73035 7.38281 9.64675 7.38281 9.54291Z" fill="#EBDFD0"/>
<path d="M13.148 6.91652C15.0548 6.91652 16.6006 5.3682 16.6006 3.45826C16.6006 1.54832 15.0548 0 13.148 0C11.2411 0 9.69531 1.54832 9.69531 3.45826C9.69531 5.3682 11.2411 6.91652 13.148 6.91652Z" fill="#A48B6F"/>
</svg>