<svg width="165" height="55" viewBox="0 0 165 55" fill="none" xmlns="http://www.w3.org/2000/svg">
<path fill-rule="evenodd" clip-rule="evenodd" d="M28.1938 49.6341C40.4182 49.6341 50.328 39.7243 50.328 27.5C50.328 15.2756 40.4182 5.36585 28.1938 5.36585C15.9695 5.36585 6.0597 15.2756 6.0597 27.5C6.0597 39.7243 15.9695 49.6341 28.1938 49.6341ZM28.1938 55C43.3817 55 55.6938 42.6878 55.6938 27.5C55.6938 12.3122 43.3817 0 28.1938 0C13.006 0 0.693848 12.3122 0.693848 27.5C0.693848 42.6878 13.006 55 28.1938 55Z" fill="url(#paint0_linear_10323_81707)"/>
<path d="M73.9245 36.3225C72.7472 36.3225 71.6828 36.1209 70.7314 35.7178C69.796 35.3146 69.0542 34.734 68.5058 33.9761C67.9575 33.2181 67.6753 32.3231 67.6592 31.2909H71.2877C71.3361 31.9844 71.578 32.5327 72.0134 32.9359C72.465 33.3391 73.0778 33.5406 73.8519 33.5406C74.6421 33.5406 75.263 33.3552 75.7146 32.9843C76.1661 32.5972 76.3919 32.0973 76.3919 31.4845C76.3919 30.9845 76.2387 30.5733 75.9323 30.2508C75.6259 29.9282 75.2388 29.6783 74.7711 29.5009C74.3196 29.3073 73.6906 29.0977 72.8843 28.8719C71.7877 28.5494 70.8926 28.2349 70.1992 27.9285C69.5218 27.606 68.9332 27.1302 68.4333 26.5013C67.9495 25.8562 67.7076 25.0015 67.7076 23.9371C67.7076 22.9372 67.9575 22.0664 68.4575 21.3245C68.9574 20.5827 69.6589 20.0183 70.562 19.6312C71.4651 19.228 72.4972 19.0265 73.6584 19.0265C75.4001 19.0265 76.8112 19.4538 77.8917 20.3085C78.9883 21.1471 79.5931 22.3244 79.706 23.8403H75.9807C75.9484 23.2598 75.6984 22.784 75.2308 22.4131C74.7792 22.0261 74.1744 21.8325 73.4165 21.8325C72.7553 21.8325 72.2231 22.0019 71.8199 22.3405C71.4329 22.6792 71.2393 23.1711 71.2393 23.8161C71.2393 24.2677 71.3845 24.6467 71.6748 24.9531C71.9812 25.2434 72.3521 25.4853 72.7875 25.6788C73.2391 25.8562 73.868 26.0658 74.6744 26.3077C75.771 26.6303 76.666 26.9528 77.3595 27.2754C78.053 27.5979 78.6497 28.0817 79.1496 28.7268C79.6495 29.3718 79.8995 30.2185 79.8995 31.2668C79.8995 32.1699 79.6656 33.0085 79.198 33.7825C78.7303 34.5566 78.0449 35.1775 77.1418 35.6452C76.2387 36.0968 75.1662 36.3225 73.9245 36.3225Z" fill="url(#paint1_linear_10323_81707)"/>
<path d="M95.2936 29.1622C95.2936 29.646 95.2613 30.0814 95.1968 30.4685H85.3998C85.4804 31.4361 85.8191 32.1941 86.4158 32.7424C87.0124 33.2907 87.7462 33.5648 88.6171 33.5648C89.875 33.5648 90.77 33.0246 91.3022 31.9441H94.9549C94.5679 33.2342 93.8261 34.2986 92.7294 35.1372C91.6328 35.9597 90.2862 36.3709 88.6896 36.3709C87.3995 36.3709 86.2384 36.0887 85.2062 35.5243C84.1902 34.9437 83.392 34.1293 82.8114 33.081C82.247 32.0328 81.9647 30.8233 81.9647 29.4525C81.9647 28.0656 82.247 26.848 82.8114 25.7997C83.3758 24.7515 84.1661 23.9452 85.182 23.3807C86.198 22.8163 87.3672 22.5341 88.6896 22.5341C89.9637 22.5341 91.1006 22.8082 92.1005 23.3565C93.1165 23.9048 93.8986 24.687 94.4469 25.703C95.0114 26.7028 95.2936 27.8559 95.2936 29.1622ZM91.786 28.1946C91.7699 27.3237 91.4554 26.6303 90.8426 26.1142C90.2298 25.582 89.4799 25.3159 88.5929 25.3159C87.7543 25.3159 87.0447 25.574 86.4641 26.09C85.8997 26.59 85.553 27.2915 85.4239 28.1946H91.786Z" fill="url(#paint2_linear_10323_81707)"/>
<path d="M105.192 22.5582C106.789 22.5582 108.079 23.0662 109.062 24.0822C110.046 25.0821 110.538 26.4851 110.538 28.2913V36.1532H107.151V28.751C107.151 27.6866 106.885 26.8722 106.353 26.3077C105.821 25.7272 105.095 25.4369 104.176 25.4369C103.241 25.4369 102.499 25.7272 101.95 26.3077C101.418 26.8722 101.152 27.6866 101.152 28.751V36.1532H97.7656V22.7518H101.152V24.4209C101.604 23.8403 102.176 23.3888 102.87 23.0662C103.579 22.7276 104.353 22.5582 105.192 22.5582Z" fill="url(#paint3_linear_10323_81707)"/>
<path d="M117.702 25.5336V32.0167C117.702 32.4682 117.806 32.7988 118.016 33.0085C118.242 33.202 118.613 33.2987 119.129 33.2987H120.701V36.1532H118.572C115.718 36.1532 114.291 34.7663 114.291 31.9925V25.5336H112.694V22.7518H114.291V19.4377H117.702V22.7518H120.701V25.5336H117.702Z" fill="url(#paint4_linear_10323_81707)"/>
<path d="M124.855 21.1552C124.258 21.1552 123.758 20.9697 123.355 20.5988C122.968 20.2118 122.774 19.736 122.774 19.1716C122.774 18.6072 122.968 18.1395 123.355 17.7686C123.758 17.3815 124.258 17.188 124.855 17.188C125.451 17.188 125.943 17.3815 126.33 17.7686C126.733 18.1395 126.935 18.6072 126.935 19.1716C126.935 19.736 126.733 20.2118 126.33 20.5988C125.943 20.9697 125.451 21.1552 124.855 21.1552ZM126.524 22.7518V36.1532H123.137V22.7518H126.524Z" fill="url(#paint5_linear_10323_81707)"/>
<path d="M137.296 22.5582C138.893 22.5582 140.183 23.0662 141.167 24.0822C142.15 25.0821 142.642 26.4851 142.642 28.2913V36.1532H139.256V28.751C139.256 27.6866 138.989 26.8722 138.457 26.3077C137.925 25.7272 137.199 25.4369 136.28 25.4369C135.345 25.4369 134.603 25.7272 134.055 26.3077C133.522 26.8722 133.256 27.6866 133.256 28.751V36.1532H129.87V22.7518H133.256V24.4209C133.708 23.8403 134.28 23.3888 134.974 23.0662C135.683 22.7276 136.458 22.5582 137.296 22.5582Z" fill="url(#paint6_linear_10323_81707)"/>
<path d="M158.321 29.1622C158.321 29.646 158.288 30.0814 158.224 30.4685H148.427C148.508 31.4361 148.846 32.1941 149.443 32.7424C150.04 33.2907 150.773 33.5648 151.644 33.5648C152.902 33.5648 153.797 33.0246 154.329 31.9441H157.982C157.595 33.2342 156.853 34.2986 155.757 35.1372C154.66 35.9597 153.313 36.3709 151.717 36.3709C150.427 36.3709 149.265 36.0887 148.233 35.5243C147.217 34.9437 146.419 34.1293 145.839 33.081C145.274 32.0328 144.992 30.8233 144.992 29.4525C144.992 28.0656 145.274 26.848 145.839 25.7997C146.403 24.7515 147.193 23.9452 148.209 23.3807C149.225 22.8163 150.394 22.5341 151.717 22.5341C152.991 22.5341 154.128 22.8082 155.128 23.3565C156.144 23.9048 156.926 24.687 157.474 25.703C158.039 26.7028 158.321 27.8559 158.321 29.1622ZM154.813 28.1946C154.797 27.3237 154.483 26.6303 153.87 26.1142C153.257 25.582 152.507 25.3159 151.62 25.3159C150.781 25.3159 150.072 25.574 149.491 26.09C148.927 26.59 148.58 27.2915 148.451 28.1946H154.813Z" fill="url(#paint7_linear_10323_81707)"/>
<path d="M164.179 18.2524V36.1532H160.793V18.2524H164.179Z" fill="url(#paint8_linear_10323_81707)"/>
<defs>
<linearGradient id="paint0_linear_10323_81707" x1="0.693847" y1="27.5" x2="55.6938" y2="27.5" gradientUnits="userSpaceOnUse">
<stop stop-color="#EED501"/>
<stop offset="1" stop-color="#04C7E9"/>
</linearGradient>
<linearGradient id="paint1_linear_10323_81707" x1="67.6592" y1="17.188" x2="74.9945" y2="54.096" gradientUnits="userSpaceOnUse">
<stop stop-color="#7CE27E"/>
<stop offset="1" stop-color="#07B382"/>
</linearGradient>
<linearGradient id="paint2_linear_10323_81707" x1="67.6592" y1="17.188" x2="74.9945" y2="54.096" gradientUnits="userSpaceOnUse">
<stop stop-color="#7CE27E"/>
<stop offset="1" stop-color="#07B382"/>
</linearGradient>
<linearGradient id="paint3_linear_10323_81707" x1="67.6592" y1="17.188" x2="74.9945" y2="54.096" gradientUnits="userSpaceOnUse">
<stop stop-color="#7CE27E"/>
<stop offset="1" stop-color="#07B382"/>
</linearGradient>
<linearGradient id="paint4_linear_10323_81707" x1="67.6592" y1="17.188" x2="74.9945" y2="54.096" gradientUnits="userSpaceOnUse">
<stop stop-color="#7CE27E"/>
<stop offset="1" stop-color="#07B382"/>
</linearGradient>
<linearGradient id="paint5_linear_10323_81707" x1="67.6592" y1="17.188" x2="74.9945" y2="54.096" gradientUnits="userSpaceOnUse">
<stop stop-color="#7CE27E"/>
<stop offset="1" stop-color="#07B382"/>
</linearGradient>
<linearGradient id="paint6_linear_10323_81707" x1="67.6592" y1="17.188" x2="74.9945" y2="54.096" gradientUnits="userSpaceOnUse">
<stop stop-color="#7CE27E"/>
<stop offset="1" stop-color="#07B382"/>
</linearGradient>
<linearGradient id="paint7_linear_10323_81707" x1="67.6592" y1="17.188" x2="74.9945" y2="54.096" gradientUnits="userSpaceOnUse">
<stop stop-color="#7CE27E"/>
<stop offset="1" stop-color="#07B382"/>
</linearGradient>
<linearGradient id="paint8_linear_10323_81707" x1="67.6592" y1="17.188" x2="74.9945" y2="54.096" gradientUnits="userSpaceOnUse">
<stop stop-color="#7CE27E"/>
<stop offset="1" stop-color="#07B382"/>
</linearGradient>
</defs>
</svg>
