<svg width="124" height="26" viewBox="0 0 124 26" fill="none" xmlns="http://www.w3.org/2000/svg">
<g clip-path="url(#clip0_2561_4565)">
<path d="M11.7397 26C13.5419 26 15.0029 24.5449 15.0029 22.75C15.0029 20.9551 13.5419 19.5 11.7397 19.5C9.93753 19.5 8.47656 20.9551 8.47656 22.75C8.47656 24.5449 9.93753 26 11.7397 26Z" fill="#00C0FF"/>
<path d="M11.7397 6.49999C13.5419 6.49999 15.0029 5.04492 15.0029 3.25C15.0029 1.45507 13.5419 0 11.7397 0C9.93753 0 8.47656 1.45507 8.47656 3.25C8.47656 5.04492 9.93753 6.49999 11.7397 6.49999Z" fill="#008CE6"/>
<path d="M11.7397 26C13.5419 26 15.0029 24.5449 15.0029 22.75C15.0029 20.9551 13.5419 19.5 11.7397 19.5C9.93753 19.5 8.47656 20.9551 8.47656 22.75C8.47656 24.5449 9.93753 26 11.7397 26Z" fill="#FF9A5C"/>
<path d="M11.7397 6.49999C13.5419 6.49999 15.0029 5.04492 15.0029 3.25C15.0029 1.45507 13.5419 0 11.7397 0C9.93753 0 8.47656 1.45507 8.47656 3.25C8.47656 5.04492 9.93753 6.49999 11.7397 6.49999Z" fill="#413FFF"/>
<path d="M4.89597 5.3125L21.8519 15.0625L18.5887 20.692L1.63281 10.942L4.89597 5.3125Z" fill="url(#paint0_linear_2561_4565)"/>
<path d="M20.2163 21.125C22.0185 21.125 23.4794 19.6699 23.4794 17.875C23.4794 16.0801 22.0185 14.625 20.2163 14.625C18.4141 14.625 16.9531 16.0801 16.9531 17.875C16.9531 19.6699 18.4141 21.125 20.2163 21.125Z" fill="#FF47A7"/>
<path d="M3.26316 11.375C5.06535 11.375 6.52632 9.91992 6.52632 8.125C6.52632 6.33007 5.06535 4.875 3.26316 4.875C1.46097 4.875 0 6.33007 0 8.125C0 9.91992 1.46097 11.375 3.26316 11.375Z" fill="#8738FF"/>
<path d="M1.63281 15.0625L18.5887 5.3125L21.8519 10.942L4.89597 20.692L1.63281 15.0625Z" fill="url(#paint1_linear_2561_4565)"/>
<path d="M20.2163 11.375C22.0185 11.375 23.4794 9.91992 23.4794 8.125C23.4794 6.33007 22.0185 4.875 20.2163 4.875C18.4141 4.875 16.9531 6.33007 16.9531 8.125C16.9531 9.91992 18.4141 11.375 20.2163 11.375Z" fill="#0074D9"/>
<path d="M3.26316 21.125C5.06535 21.125 6.52632 19.6699 6.52632 17.875C6.52632 16.0801 5.06535 14.625 3.26316 14.625C1.46097 14.625 0 16.0801 0 17.875C0 19.6699 1.46097 21.125 3.26316 21.125Z" fill="#00A38C"/>
<path fill-rule="evenodd" clip-rule="evenodd" d="M11.7454 16.752L5.21875 12.999L11.7454 9.24609L18.272 12.999L11.7454 16.752Z" fill="#008ED0"/>
<path d="M40.0697 8.01172H36.7193L34.7807 10.9611L32.8208 8.01172H29.472L33.0755 13.1289L29.2188 18.5619H32.5681L34.7807 15.2946L36.9725 18.5619H40.3218L36.4447 13.108L40.0697 8.01172Z" fill="black"/>
<path d="M46.8973 7.88672C45.7915 7.88672 44.8084 8.32633 44.1077 9.12828V8.01255H41.3594V18.5627H44.339V13.2983C44.339 11.5947 45.3075 10.6565 47.0655 10.6565H47.893V8.03134L47.8434 8.0162C47.5489 7.92535 47.2665 7.88672 46.8973 7.88672Z" fill="black"/>
<path d="M54.0327 7.78125C50.9392 7.78125 48.5156 10.2043 48.5156 13.2983C48.5156 16.4435 50.9956 18.8154 54.2849 18.8154C55.8345 18.8154 57.2504 18.286 58.4936 17.2428L58.54 17.2037L57.2901 15.1497L57.228 15.1983C56.3154 15.9057 55.4069 16.2352 54.3689 16.2352C52.9133 16.2352 51.8869 15.5371 51.5381 14.3154H58.799L58.8121 14.2611C58.857 14.0705 59.0032 13.3944 59.0032 12.689C59.0026 9.84513 56.9126 7.78125 54.0327 7.78125ZM53.9272 10.2148C55.1662 10.2148 56.0517 11.0178 56.1044 12.1769H51.5365C51.8634 10.964 52.7723 10.2148 53.9272 10.2148Z" fill="black"/>
<path d="M68.3099 14.602C67.604 15.6003 66.8271 16.0655 65.8654 16.0655C64.3221 16.0655 63.2022 14.8923 63.2022 13.2764C63.2022 11.6725 64.3221 10.5082 65.8654 10.5082C66.8585 10.5082 67.6348 10.9791 68.3089 11.991L68.3506 12.0542L70.4349 10.4356L70.4056 10.3829C69.4899 8.72939 67.8191 7.78125 65.8226 7.78125C62.6581 7.78125 60.1797 10.1955 60.1797 13.2775C60.1797 16.3829 62.6586 18.8154 65.8226 18.8154C67.8118 18.8154 69.482 17.8594 70.4056 16.1924L70.4349 16.1391L68.3517 14.5436L68.3099 14.602Z" fill="black"/>
<path d="M77.5536 7.88672C76.4478 7.88672 75.4647 8.32633 74.764 9.12828V8.01255H72.0156V18.5627H74.9953V13.2983C74.9953 11.5947 75.9638 10.6565 77.7217 10.6565H78.5493V8.03134L78.4996 8.0162C78.2052 7.92535 77.9222 7.88672 77.5536 7.88672Z" fill="black"/>
<path d="M86.4217 14.142C86.4217 15.2588 85.6375 16.0691 84.5577 16.0691C83.4352 16.0691 82.6515 15.2765 82.6515 14.142V8.01562H79.6719V13.9112C79.6719 16.8006 81.6809 18.8185 84.5577 18.8185C87.4095 18.8185 89.4018 16.8006 89.4018 13.9112V8.01562H86.4222V14.142H86.4217Z" fill="black"/>
<path d="M94.5968 8.01562H91.6172V18.5658H94.5968V8.01562Z" fill="black"/>
<path d="M93.0978 2.46094C92.0442 2.46094 91.2188 3.26759 91.2188 4.2977C91.2188 5.31581 92.0442 6.11359 93.0978 6.11359C94.1629 6.11359 94.9977 5.31581 94.9977 4.2977C94.9977 3.26811 94.1629 2.46094 93.0978 2.46094Z" fill="black"/>
<path d="M102.328 16.1288C101.004 16.1288 100.464 15.6798 100.464 14.5802V10.5501H103.408V8.01161H100.464V5.38281H97.4842V8.01161H95.8438V10.5501H97.4842V14.8324C97.4842 17.4001 98.9879 18.8145 101.718 18.8145C102.37 18.8145 102.997 18.7336 103.691 18.5602L103.744 18.5467V16.039L103.391 16.0667C102.968 16.0995 102.603 16.1288 102.328 16.1288Z" fill="black"/>
<path d="M110.119 7.78125C107.025 7.78125 104.602 10.2043 104.602 13.2983C104.602 16.4435 107.082 18.8154 110.371 18.8154C111.92 18.8154 113.336 18.286 114.58 17.2428L114.626 17.2037L113.376 15.1497L113.314 15.1983C112.402 15.9057 111.493 16.2352 110.455 16.2352C109 16.2352 107.973 15.5371 107.625 14.3154H114.885L114.898 14.2611C114.943 14.0711 115.09 13.3944 115.09 12.689C115.089 9.84513 112.999 7.78125 110.119 7.78125ZM110.014 10.2148C111.253 10.2148 112.138 11.0178 112.191 12.1769H107.624C107.949 10.964 108.858 10.2148 110.014 10.2148Z" fill="black"/>
<path d="M123.383 8.0162C123.089 7.92535 122.806 7.88672 122.437 7.88672C121.331 7.88672 120.348 8.32633 119.647 9.12828V8.01255H116.898V18.5627H119.879V13.2983C119.879 11.5947 120.847 10.6565 122.605 10.6565H123.433V8.03134L123.383 8.0162Z" fill="black"/>
</g>
<defs>
<linearGradient id="paint0_linear_2561_4565" x1="1.63283" y1="13.0023" x2="21.8518" y2="13.0023" gradientUnits="userSpaceOnUse">
<stop stop-color="#A88CFF"/>
<stop offset="0.8639" stop-color="#F3A1FF"/>
<stop offset="1" stop-color="#FFA4FF"/>
</linearGradient>
<linearGradient id="paint1_linear_2561_4565" x1="1.63283" y1="13.0023" x2="21.8518" y2="13.0023" gradientUnits="userSpaceOnUse">
<stop stop-color="#FFA4FF"/>
<stop offset="0.00366276" stop-color="#00FFA0"/>
<stop offset="0.2095" stop-color="#00F8B4"/>
<stop offset="1" stop-color="#00DDFF"/>
</linearGradient>
<clipPath id="clip0_2561_4565">
<rect width="124" height="26" fill="white"/>
</clipPath>
</defs>
</svg>
